<svg width="1188" height="949" viewBox="0 0 1188 949" fill="none" xmlns="http://www.w3.org/2000/svg">
<path d="M680.712 53.2015C610.828 53.2015 550.2 85.3547 516.285 132.839C484.82 113.867 446.678 102.395 405.249 102.396C298.627 102.396 211.999 176.324 211.999 267.316C211.999 274.002 213.454 280.394 214.362 286.873C122.28 299.411 51.5881 366.875 51.5881 448.97C51.5881 530.314 120.922 597.639 211.763 611.068C209.922 620.202 208.456 629.513 208.456 639.093C208.456 730.084 295.084 803.812 401.706 803.812C453.929 803.812 501.116 786.009 535.894 757.239C571.335 793.216 623.731 816.715 683.075 816.715C767.747 816.715 838.927 769.767 864.985 705.021C885.843 711.603 908.08 715.908 931.607 715.908C1038.23 715.908 1124.62 641.98 1124.62 550.988C1124.62 505.232 1102.76 463.927 1067.45 434.051C1085.28 409.089 1096.27 380.121 1096.27 348.768C1096.27 257.776 1009.64 184.049 903.022 184.05C891.797 184.05 880.884 185.1 870.182 186.67C852.965 110.703 774.735 53.2015 680.712 53.2015Z" fill="white" stroke="white" stroke-width="10.8568" stroke-linejoin="round"/>
</svg>
