<svg width="1440" height="1024" viewBox="0 0 1440 1024" fill="none" xmlns="http://www.w3.org/2000/svg">
<g id="svgplan">
<g id="planall">
<path id="Vector" opacity="0.19" d="M1439.77 318.391H1301.27V289.415H1439.77L1422.21 303.917L1439.77 318.391Z" fill="#51473D"/>
<path id="Vector_2" d="M1264.93 302.674H1283.45" stroke="#55514F" stroke-width="1.2394" stroke-miterlimit="10"/>
<g id="Group" opacity="0.21">
<g id="Group_2" opacity="0.21">
<g id="Group_3" opacity="0.21">
<path id="Vector_3" opacity="0.21" d="M1159.89 302.201C1159.86 301.905 1159.8 301.372 1159.76 301.076L1159.25 296.755C1159.22 296.459 1159.15 295.926 1159.09 295.63L1158.61 292.641C1158.55 292.345 1158.48 292.345 1158.48 292.641L1158.35 294.062C1158.32 294.387 1158.29 294.89 1158.32 295.186L1158.38 300.425C1158.38 300.751 1158.42 301.254 1158.42 301.55L1158.55 305.101C1158.55 305.427 1158.58 305.93 1158.58 306.226L1158.71 310.991C1158.71 311.317 1158.77 311.82 1158.83 312.116L1159.22 314.247C1159.28 314.543 1159.35 314.543 1159.41 314.247L1159.8 311.968C1159.86 311.672 1159.89 311.139 1159.92 310.843L1160.28 305.249C1160.31 304.924 1160.28 304.421 1160.24 304.125L1159.89 302.201Z" fill="#51473D"/>
<path id="Vector_4" opacity="0.21" d="M1159.25 314.987C1159.03 314.987 1158.71 314.868 1158.61 314.336L1158.22 312.205C1158.16 311.879 1158.1 311.346 1158.1 311.021L1157.97 306.256C1157.97 305.93 1157.94 305.427 1157.94 305.131L1157.81 301.579C1157.81 301.254 1157.78 300.751 1157.78 300.425L1157.71 295.186C1157.71 294.861 1157.74 294.328 1157.78 294.002L1157.9 292.582C1157.94 292.138 1158.16 291.901 1158.51 291.901C1159.03 291.901 1159.09 292.404 1159.12 292.552L1159.6 295.541C1159.67 295.867 1159.73 296.37 1159.76 296.696L1160.69 304.065C1160.72 304.391 1160.76 304.953 1160.72 305.279L1160.37 310.873C1160.34 311.198 1160.31 311.731 1160.24 312.057L1159.86 314.336C1159.76 314.868 1159.47 314.987 1159.25 314.987ZM1158.83 297.998L1158.87 300.425C1158.87 300.721 1158.9 301.254 1158.9 301.55L1159.03 305.101C1159.03 305.427 1159.06 305.93 1159.06 306.226L1159.19 310.991C1159.19 311.169 1159.22 311.376 1159.22 311.613C1159.25 311.346 1159.28 311.05 1159.28 310.843L1159.63 305.249C1159.67 304.953 1159.63 304.48 1159.6 304.213L1158.83 297.998Z" fill="#51473D"/>
</g>
<g id="Group_4" opacity="0.21">
<path id="Vector_5" opacity="0.21" d="M1187.2 305.427C1185.41 305.427 1182.74 305.279 1181.33 305.131C1179.92 304.983 1179.22 306.048 1179.8 307.528L1182.46 314.395C1183.03 315.875 1183.58 318.361 1183.67 319.93L1185.95 355.831C1186.05 357.4 1186.21 359.294 1186.3 360.093C1186.4 360.863 1186.91 361.899 1187.46 362.372C1188 362.846 1189.22 363.319 1190.15 363.438C1191.11 363.556 1192.87 363.556 1194.09 363.438C1195.31 363.319 1197.3 362.934 1198.51 362.579C1199.73 362.224 1200.98 361.78 1201.3 361.573C1201.62 361.366 1202.1 359.945 1202.39 358.406L1209.57 319.042C1209.86 317.503 1210.5 315.016 1210.98 313.507L1212.75 308.239C1213.23 306.729 1212.17 305.516 1210.37 305.486L1187.2 305.427Z" fill="#51473D"/>
<path id="Vector_6" opacity="0.21" d="M1192.04 364C1191.27 364 1190.57 363.97 1190.08 363.911C1189.03 363.793 1187.71 363.26 1187.07 362.727C1186.43 362.195 1185.85 361.04 1185.76 360.152C1185.66 359.383 1185.5 357.459 1185.41 355.89L1183.13 319.989C1183.03 318.45 1182.49 316.052 1181.94 314.602L1179.28 307.736C1178.93 306.818 1178.99 305.96 1179.44 305.368C1179.86 304.835 1180.53 304.569 1181.4 304.687C1182.81 304.835 1185.41 304.983 1187.2 304.983L1210.37 305.042C1211.43 305.042 1212.36 305.427 1212.91 306.078C1213.42 306.729 1213.55 307.528 1213.29 308.387L1211.53 313.655C1211.05 315.164 1210.41 317.621 1210.12 319.13L1202.94 358.495C1202.87 358.791 1202.36 361.514 1201.62 361.987C1201.21 362.254 1199.8 362.727 1198.71 363.053C1197.46 363.408 1195.41 363.793 1194.16 363.911C1193.55 363.941 1192.81 364 1192.04 364ZM1181.08 305.605C1180.76 305.605 1180.5 305.693 1180.34 305.901C1180.08 306.226 1180.08 306.759 1180.31 307.38L1182.97 314.247C1183.55 315.756 1184.12 318.302 1184.22 319.9L1186.49 355.802C1186.59 357.37 1186.75 359.264 1186.85 360.034C1186.91 360.685 1187.39 361.603 1187.84 361.987C1188.29 362.372 1189.41 362.816 1190.25 362.934C1191.11 363.053 1192.94 363.053 1194.06 362.934C1195.25 362.816 1197.17 362.461 1198.39 362.106C1199.7 361.721 1200.82 361.307 1201.05 361.188C1201.17 361.04 1201.62 359.945 1201.91 358.347L1209.09 318.983C1209.38 317.443 1210.02 314.928 1210.53 313.389L1212.3 308.12C1212.49 307.558 1212.39 307.055 1212.1 306.67C1211.75 306.256 1211.18 306.019 1210.44 306.019L1187.26 305.96C1185.44 305.96 1182.78 305.812 1181.33 305.664C1181.21 305.605 1181.14 305.605 1181.08 305.605Z" fill="#51473D"/>
</g>
<g id="Group_5" opacity="0.21">
<path id="Vector_7" opacity="0.21" d="M1187.2 301.461C1185.41 301.461 1182.74 301.609 1181.33 301.757C1179.92 301.905 1179.22 300.839 1179.8 299.36L1182.46 292.493C1183.03 291.013 1183.58 288.527 1183.67 286.958L1185.95 251.057C1186.05 249.488 1186.21 247.594 1186.3 246.795C1186.4 246.025 1186.91 244.989 1187.46 244.516C1188 244.042 1189.22 243.569 1190.18 243.45C1191.14 243.332 1192.91 243.332 1194.12 243.45C1195.34 243.569 1197.33 243.953 1198.55 244.309C1199.76 244.664 1201.01 245.108 1201.34 245.315C1201.66 245.522 1202.14 246.943 1202.42 248.482L1209.6 287.846C1209.89 289.385 1210.53 291.871 1211.02 293.381L1212.78 298.649C1213.29 300.159 1212.2 301.372 1210.41 301.402L1187.2 301.461Z" fill="#51473D"/>
<path id="Vector_8" opacity="0.21" d="M1181.11 302.26C1180.44 302.26 1179.86 301.994 1179.51 301.55C1179.06 300.958 1178.99 300.099 1179.35 299.182L1182.01 292.315C1182.58 290.865 1183.1 288.468 1183.19 286.929L1185.47 251.027C1185.57 249.459 1185.73 247.535 1185.82 246.765C1185.92 245.877 1186.49 244.753 1187.14 244.19C1187.78 243.657 1189.09 243.125 1190.15 243.006C1191.11 242.888 1193 242.888 1194.22 243.006C1195.47 243.125 1197.49 243.509 1198.77 243.865C1199.89 244.19 1201.3 244.664 1201.69 244.93C1202.42 245.374 1202.94 248.097 1203 248.423L1210.18 287.787C1210.47 289.326 1211.08 291.783 1211.59 293.262L1213.35 298.531C1213.64 299.389 1213.52 300.218 1212.97 300.839C1212.43 301.491 1211.5 301.875 1210.44 301.875L1187.23 301.934C1185.44 301.934 1182.84 302.082 1181.43 302.23C1181.3 302.26 1181.21 302.26 1181.11 302.26ZM1192.07 243.865C1191.37 243.865 1190.69 243.894 1190.28 243.953C1189.44 244.042 1188.32 244.486 1187.87 244.901C1187.42 245.285 1186.98 246.203 1186.88 246.884C1186.78 247.653 1186.62 249.547 1186.53 251.116L1184.25 287.017C1184.16 288.616 1183.58 291.161 1183 292.671L1180.34 299.537C1180.12 300.129 1180.12 300.691 1180.37 301.017C1180.57 301.254 1180.89 301.343 1181.3 301.313C1182.74 301.165 1185.41 301.017 1187.23 301.017L1210.44 300.958C1211.18 300.958 1211.75 300.721 1212.1 300.307C1212.43 299.922 1212.49 299.389 1212.3 298.856L1210.53 293.588C1210.02 292.079 1209.38 289.563 1209.09 287.994L1201.91 248.63C1201.62 247.032 1201.17 245.936 1201.01 245.759C1200.85 245.67 1199.73 245.226 1198.42 244.871C1197.23 244.516 1195.28 244.161 1194.09 244.042C1193.51 243.894 1192.78 243.865 1192.07 243.865Z" fill="#51473D"/>
</g>
<g id="Group_6" opacity="0.21">
<path id="Vector_9" opacity="0.21" d="M1155.02 303.474C1155.02 303.918 1154.92 304.302 1154.76 304.302C1154.63 304.302 1154.51 303.947 1154.51 303.474C1154.51 303.03 1154.6 302.645 1154.76 302.645C1154.89 302.674 1155.02 303.03 1155.02 303.474Z" fill="#51473D"/>
<path id="Vector_10" opacity="0.21" d="M1154.76 304.776C1154.47 304.776 1153.99 304.598 1153.99 303.474C1153.99 302.349 1154.47 302.171 1154.76 302.171C1155.05 302.171 1155.53 302.349 1155.53 303.474C1155.56 304.628 1155.05 304.776 1154.76 304.776Z" fill="#51473D"/>
</g>
<path id="Vector_11" opacity="0.21" d="M1265.57 304.361L1265.5 302.526C1265.95 302.438 1266.37 302.201 1266.66 301.905C1267.01 301.52 1267.17 301.017 1267.07 300.543L1265.6 290.303C1265.47 289.533 1265.28 288.261 1265.12 287.461L1263.48 279.529C1263.29 278.582 1262.33 277.635 1261.34 277.369C1260.5 277.162 1259.06 276.866 1258.16 276.747L1257.46 276.658C1257.11 276.599 1256.69 276.599 1256.27 276.599C1255.89 276.599 1255.18 276.629 1254.7 276.777C1254.22 276.925 1253.45 277.221 1252.97 277.428C1252.49 277.635 1251.85 278.109 1251.63 278.553C1251.43 278.937 1251.24 279.914 1251.14 280.624L1250.6 284.62C1250.5 285.39 1250.34 286.662 1250.28 287.461L1249.67 293.499C1249.61 294.269 1249.51 295.571 1249.51 296.37L1249.48 299.951C1248.48 299.715 1247.27 299.448 1246.21 299.3L1244.8 299.064C1243 298.768 1240.09 298.383 1238.29 298.176L1231.02 297.347C1229.19 297.14 1226.27 296.873 1224.45 296.785L1214.73 296.193C1212.91 296.074 1209.96 295.985 1208.16 295.956L1184.03 295.719H1183.03C1181.21 295.719 1178.93 295.749 1177.42 295.808L1175.44 295.867C1173.61 295.926 1170.66 296.133 1168.87 296.311L1166.75 296.518C1165.12 296.666 1163.03 296.992 1162.33 297.229C1161.75 297.436 1161.01 297.85 1160.72 298.294C1160.53 298.56 1160.24 299.064 1160.05 299.389C1159.99 299.478 1159.6 299.685 1159.12 299.685C1158.48 299.685 1157.52 299.833 1156.91 299.981C1156.27 300.159 1155.44 300.662 1155.02 301.135C1154.57 301.609 1154.22 302.349 1154.19 302.882C1154.19 303.059 1154.22 303.207 1154.35 303.355L1154.31 303.562C1154.19 303.71 1154.15 303.858 1154.15 304.036C1154.15 304.154 1154.19 304.273 1154.22 304.421C1154.35 304.894 1154.63 305.427 1154.99 305.782C1155.4 306.226 1156.24 306.729 1156.88 306.936C1157.49 307.114 1158.45 307.232 1159.09 307.232C1159.57 307.232 1159.96 307.44 1160.02 307.528C1160.21 307.854 1160.5 308.327 1160.69 308.623C1160.98 309.038 1161.72 309.482 1162.3 309.689C1162.97 309.926 1165.05 310.222 1166.72 310.399L1168.83 310.606C1170.66 310.784 1173.61 310.991 1175.4 311.05L1177.39 311.11C1178.87 311.169 1181.14 311.198 1182.97 311.198L1208.1 310.962C1209.93 310.932 1212.87 310.843 1214.67 310.725L1224.38 310.133C1226.21 310.015 1229.16 309.778 1230.95 309.571L1238.23 308.742C1240.02 308.535 1242.97 308.15 1244.73 307.854L1246.14 307.617C1247.23 307.44 1248.42 307.203 1249.41 306.966L1249.45 310.518C1249.45 311.287 1249.51 312.59 1249.61 313.389L1250.22 319.426C1250.28 320.196 1250.44 321.498 1250.54 322.268L1251.05 326.263C1251.14 326.974 1251.34 327.95 1251.53 328.335C1251.75 328.779 1252.36 329.253 1252.88 329.49C1253.36 329.697 1254.13 329.993 1254.61 330.141C1255.06 330.289 1255.79 330.318 1256.18 330.318C1256.59 330.318 1257.01 330.289 1257.36 330.259L1258.07 330.17C1259 330.052 1260.41 329.786 1261.24 329.549C1262.23 329.282 1263.2 328.335 1263.39 327.388L1265.02 319.486C1265.18 318.746 1265.41 317.473 1265.54 316.644L1267.01 306.404C1267.07 305.901 1266.91 305.427 1266.59 305.042C1266.34 304.687 1265.99 304.48 1265.57 304.361Z" fill="#51473D"/>
<g id="Group_7" opacity="0.21">
<path id="Vector_12" opacity="0.21" d="M1210.53 297.909C1220.09 298.916 1220.05 301.698 1220.05 303.296C1220.05 304.835 1219.93 307.469 1210.69 308.475C1201.94 309.423 1184.12 308.771 1182.84 308.771C1180.24 308.771 1178.13 306.315 1178.13 303.296C1178.13 300.277 1180.24 297.82 1182.84 297.82C1184.06 297.85 1202.14 297.051 1210.53 297.909Z" fill="#51473D"/>
<path id="Vector_13" opacity="0.21" d="M1196.88 309.985C1191.66 309.985 1186.69 309.867 1184.32 309.807C1183.55 309.778 1183.03 309.778 1182.84 309.778C1179.64 309.778 1177.04 306.877 1177.04 303.355C1177.04 299.803 1179.64 296.933 1182.84 296.933C1183.03 296.933 1183.61 296.903 1184.51 296.873C1187.36 296.785 1193.32 296.577 1199.19 296.577C1204.16 296.577 1208 296.725 1210.63 296.992C1219.83 297.968 1221.11 300.603 1221.11 303.326C1221.11 305.841 1219.89 308.505 1210.82 309.482C1207.65 309.807 1202.97 309.985 1196.88 309.985ZM1199.22 298.472C1193.39 298.472 1187.46 298.679 1184.6 298.768C1183.67 298.797 1183.03 298.827 1182.84 298.827C1180.82 298.827 1179.19 300.839 1179.19 303.326C1179.19 305.812 1180.82 307.824 1182.84 307.824C1183.03 307.824 1183.58 307.824 1184.38 307.854C1186.75 307.913 1191.69 308.032 1196.88 308.032C1202.87 308.032 1207.49 307.854 1210.57 307.528C1218.96 306.611 1218.96 304.48 1218.96 303.326C1218.96 301.994 1218.96 299.803 1210.41 298.916C1207.87 298.62 1204.09 298.472 1199.22 298.472Z" fill="#51473D"/>
</g>
</g>
</g>
<g id="plan">
<path id="Vector_14" d="M1438.78 317.148H1300.28V288.201H1438.78L1421.18 302.674L1438.78 317.148Z" fill="white"/>
<path id="Vector_15" d="M1299.7 316.94L1283.45 302.674L1299.7 288.379" stroke="#55514F" stroke-width="1.2394" stroke-miterlimit="10" stroke-linecap="round" stroke-linejoin="round"/>
<g id="Group_8">
<g id="Group_9">
<path id="Vector_16" d="M1158.9 301.283C1158.87 300.987 1158.8 300.455 1158.77 300.159L1158.26 295.837C1158.22 295.541 1158.16 295.009 1158.1 294.713L1157.62 291.723C1157.55 291.427 1157.49 291.427 1157.49 291.723L1157.36 293.144C1157.33 293.47 1157.3 293.973 1157.33 294.269L1157.39 299.508C1157.39 299.833 1157.42 300.336 1157.42 300.632L1157.55 304.184C1157.55 304.509 1157.58 305.013 1157.58 305.309L1157.71 310.074C1157.71 310.399 1157.78 310.902 1157.84 311.198L1158.22 313.329C1158.29 313.625 1158.35 313.625 1158.42 313.329L1158.8 311.05C1158.87 310.754 1158.9 310.222 1158.93 309.926L1159.28 304.332C1159.31 304.006 1159.28 303.503 1159.25 303.207L1158.9 301.283Z" fill="white"/>
<path id="Vector_17" d="M1158.26 314.069C1158.03 314.069 1157.71 313.951 1157.62 313.418L1157.23 311.287C1157.17 310.962 1157.1 310.429 1157.1 310.103L1156.97 305.338C1156.97 305.013 1156.94 304.509 1156.94 304.213L1156.81 300.662C1156.81 300.336 1156.78 299.833 1156.78 299.508L1156.72 294.269C1156.72 293.943 1156.75 293.41 1156.78 293.085L1156.91 291.664C1156.94 291.22 1157.17 290.983 1157.52 290.983C1158.03 290.983 1158.1 291.487 1158.13 291.635L1158.61 294.624C1158.67 294.95 1158.74 295.453 1158.77 295.778L1159.7 303.148C1159.73 303.474 1159.76 304.036 1159.73 304.361L1159.38 309.955C1159.35 310.281 1159.31 310.814 1159.25 311.139L1158.87 313.418C1158.77 313.951 1158.48 314.069 1158.26 314.069ZM1157.84 297.081L1157.87 299.508C1157.87 299.803 1157.9 300.336 1157.9 300.632L1158.03 304.184C1158.03 304.509 1158.06 305.013 1158.06 305.309L1158.19 310.074C1158.19 310.251 1158.22 310.459 1158.22 310.695C1158.26 310.429 1158.29 310.133 1158.29 309.926L1158.64 304.332C1158.67 304.036 1158.64 303.562 1158.61 303.296L1157.84 297.081Z" fill="white"/>
</g>
<g id="Group_10">
<path id="Vector_18" d="M1186.21 304.509C1184.41 304.509 1181.75 304.361 1180.34 304.213C1178.93 304.066 1178.23 305.131 1178.8 306.611L1181.46 313.477C1182.04 314.957 1182.58 317.443 1182.68 319.012L1184.96 354.914C1185.05 356.482 1185.21 358.376 1185.31 359.176C1185.41 359.945 1185.92 360.981 1186.46 361.455C1187.01 361.928 1188.23 362.402 1189.16 362.52C1190.12 362.639 1191.88 362.639 1193.1 362.52C1194.32 362.402 1196.3 362.017 1197.52 361.662C1198.74 361.307 1199.99 360.863 1200.31 360.655C1200.63 360.448 1201.11 359.028 1201.4 357.489L1208.58 318.124C1208.87 316.585 1209.51 314.099 1209.99 312.59L1211.75 307.321C1212.23 305.812 1211.18 304.598 1209.38 304.569L1186.21 304.509Z" fill="white"/>
<path id="Vector_19" d="M1191.05 363.053C1190.28 363.053 1189.57 363.023 1189.09 362.964C1188.03 362.846 1186.72 362.313 1186.08 361.78C1185.44 361.247 1184.86 360.093 1184.76 359.205C1184.67 358.436 1184.51 356.512 1184.41 354.943L1182.17 319.012C1182.07 317.473 1181.53 315.076 1180.98 313.625L1178.32 306.759C1177.97 305.841 1178.03 304.983 1178.48 304.391C1178.9 303.858 1179.57 303.592 1180.44 303.71C1181.85 303.858 1184.44 304.006 1186.24 304.006L1209.41 304.066C1210.47 304.066 1211.4 304.45 1211.94 305.101C1212.46 305.753 1212.59 306.552 1212.33 307.41L1210.57 312.678C1210.09 314.188 1209.44 316.644 1209.16 318.154L1201.98 357.518C1201.91 357.814 1201.4 360.537 1200.66 361.011C1200.25 361.277 1198.84 361.751 1197.75 362.076C1196.5 362.431 1194.44 362.816 1193.19 362.934C1192.55 363.023 1191.82 363.053 1191.05 363.053ZM1180.08 304.687C1179.76 304.687 1179.51 304.776 1179.35 304.983C1179.09 305.309 1179.09 305.841 1179.32 306.463L1181.98 313.329C1182.55 314.839 1183.13 317.384 1183.23 318.983L1185.5 354.884C1185.6 356.453 1185.76 358.347 1185.85 359.116C1185.92 359.768 1186.4 360.685 1186.85 361.07C1187.3 361.455 1188.42 361.899 1189.25 362.017C1190.12 362.135 1191.94 362.135 1193.07 362.017C1194.25 361.899 1196.17 361.543 1197.39 361.188C1198.71 360.803 1199.83 360.389 1200.05 360.271C1200.18 360.123 1200.63 359.028 1200.92 357.429L1208.1 318.065C1208.39 316.526 1209.03 314.01 1209.54 312.471L1211.3 307.203C1211.5 306.64 1211.4 306.137 1211.11 305.753C1210.76 305.338 1210.18 305.101 1209.44 305.101L1186.27 305.042C1184.44 305.042 1181.78 304.894 1180.34 304.746C1180.21 304.687 1180.15 304.687 1180.08 304.687Z" fill="white"/>
</g>
<g id="Group_11">
<path id="Vector_20" d="M1186.21 300.543C1184.41 300.543 1181.75 300.691 1180.34 300.839C1178.93 300.987 1178.23 299.922 1178.8 298.442L1181.46 291.575C1182.04 290.096 1182.58 287.609 1182.68 286.041L1184.96 250.139C1185.05 248.571 1185.21 246.676 1185.31 245.877C1185.41 245.108 1185.92 244.072 1186.46 243.598C1187.01 243.125 1188.23 242.651 1189.19 242.533C1190.15 242.414 1191.91 242.414 1193.13 242.533C1194.35 242.651 1196.33 243.036 1197.55 243.391C1198.77 243.746 1200.02 244.19 1200.34 244.397C1200.66 244.605 1201.14 246.025 1201.43 247.564L1208.61 286.929C1208.9 288.468 1209.54 290.954 1210.02 292.463L1211.78 297.732C1212.3 299.241 1211.21 300.455 1209.41 300.484L1186.21 300.543Z" fill="white"/>
<path id="Vector_21" d="M1180.08 301.343C1179.41 301.343 1178.83 301.076 1178.48 300.632C1178.03 300.04 1177.97 299.182 1178.32 298.264L1180.98 291.398C1181.56 289.948 1182.07 287.55 1182.17 286.011L1184.44 250.11C1184.54 248.541 1184.7 246.617 1184.8 245.848C1184.89 244.96 1185.47 243.835 1186.11 243.273C1186.75 242.74 1188.07 242.207 1189.12 242.089C1190.08 241.97 1191.98 241.97 1193.19 242.089C1194.44 242.207 1196.46 242.592 1197.75 242.947C1198.87 243.273 1200.28 243.746 1200.66 244.013C1201.4 244.457 1201.91 247.18 1201.98 247.505L1209.16 286.869C1209.44 288.409 1210.05 290.865 1210.57 292.345L1212.33 297.613C1212.62 298.472 1212.49 299.3 1211.94 299.922C1211.4 300.573 1210.47 300.958 1209.41 300.958L1186.21 301.017C1184.41 301.017 1181.82 301.165 1180.4 301.313C1180.31 301.343 1180.21 301.343 1180.08 301.343ZM1191.08 242.947C1190.37 242.947 1189.7 242.977 1189.28 243.036C1188.45 243.125 1187.33 243.569 1186.88 243.983C1186.43 244.368 1185.98 245.285 1185.89 245.966C1185.79 246.736 1185.63 248.63 1185.53 250.198L1183.26 286.1C1183.16 287.698 1182.58 290.244 1182.01 291.753L1179.35 298.62C1179.12 299.212 1179.12 299.774 1179.38 300.099C1179.57 300.336 1179.89 300.425 1180.31 300.395C1181.75 300.247 1184.41 300.099 1186.24 300.099L1209.44 300.04C1210.18 300.04 1210.76 299.804 1211.11 299.389C1211.43 299.004 1211.5 298.472 1211.3 297.939L1209.54 292.671C1209.03 291.161 1208.39 288.645 1208.1 287.077L1200.92 247.712C1200.63 246.114 1200.18 245.019 1200.02 244.841C1199.86 244.753 1198.74 244.309 1197.42 243.953C1196.24 243.598 1194.28 243.243 1193.1 243.125C1192.52 242.977 1191.78 242.947 1191.08 242.947Z" fill="white"/>
</g>
<g id="Group_12">
<path id="Vector_22" d="M1154.03 302.556C1154.03 303 1153.93 303.385 1153.77 303.385C1153.64 303.385 1153.51 303.03 1153.51 302.556C1153.51 302.112 1153.61 301.727 1153.77 301.727C1153.9 301.757 1154.03 302.112 1154.03 302.556Z" fill="#13110C"/>
<path id="Vector_23" d="M1153.77 303.858C1153.48 303.858 1153 303.681 1153 302.556C1153 301.431 1153.48 301.254 1153.77 301.254C1154.06 301.254 1154.54 301.431 1154.54 302.556C1154.57 303.71 1154.06 303.858 1153.77 303.858Z" fill="#13110C"/>
</g>
<path id="Vector_24" d="M1264.57 303.444L1264.51 301.609C1264.96 301.52 1265.38 301.283 1265.66 300.987C1266.02 300.603 1266.18 300.099 1266.08 299.626L1264.61 289.385C1264.48 288.616 1264.29 287.343 1264.13 286.544L1262.49 278.612C1262.3 277.665 1261.34 276.718 1260.34 276.451C1259.51 276.244 1258.07 275.948 1257.17 275.83L1256.47 275.741C1256.11 275.682 1255.7 275.682 1255.28 275.682C1254.89 275.682 1254.19 275.711 1253.71 275.859C1253.23 276.007 1252.46 276.303 1251.98 276.51C1251.5 276.718 1250.86 277.191 1250.63 277.635C1250.44 278.02 1250.25 278.997 1250.15 279.707L1249.61 283.703C1249.51 284.472 1249.35 285.745 1249.29 286.544L1248.68 292.582C1248.61 293.351 1248.52 294.654 1248.52 295.453L1248.48 299.034C1247.49 298.797 1246.27 298.531 1245.22 298.383L1243.8 298.146C1242.01 297.85 1239.09 297.465 1237.3 297.258L1230.02 296.429C1228.2 296.222 1225.28 295.956 1223.45 295.867L1213.74 295.275C1211.91 295.157 1208.96 295.068 1207.17 295.038L1183.03 294.802H1182.04C1180.21 294.802 1177.94 294.831 1176.43 294.89L1174.44 294.95C1172.62 295.009 1169.67 295.216 1167.87 295.393L1165.76 295.601C1164.12 295.749 1162.04 296.074 1161.33 296.311C1160.76 296.518 1160.02 296.933 1159.73 297.377C1159.54 297.643 1159.25 298.146 1159.06 298.472C1158.99 298.56 1158.61 298.768 1158.13 298.768C1157.49 298.768 1156.53 298.916 1155.92 299.064C1155.28 299.241 1154.44 299.744 1154.03 300.218C1153.58 300.691 1153.22 301.431 1153.19 301.964C1153.19 302.142 1153.22 302.29 1153.35 302.438L1153.32 302.645C1153.19 302.793 1153.16 302.941 1153.16 303.118C1153.16 303.237 1153.19 303.355 1153.22 303.503C1153.35 303.977 1153.64 304.509 1153.99 304.865C1154.41 305.309 1155.24 305.812 1155.88 306.019C1156.49 306.196 1157.46 306.315 1158.1 306.315C1158.58 306.315 1158.96 306.522 1159.03 306.611C1159.22 306.936 1159.51 307.41 1159.7 307.706C1159.99 308.12 1160.72 308.564 1161.3 308.771C1161.97 309.008 1164.06 309.304 1165.72 309.482L1167.84 309.689C1169.67 309.867 1172.62 310.074 1174.41 310.133L1176.4 310.192C1177.87 310.251 1180.15 310.281 1181.98 310.281L1207.1 310.044C1208.93 310.015 1211.88 309.926 1213.68 309.807L1223.39 309.215C1225.21 309.097 1228.16 308.86 1229.96 308.653L1237.23 307.824C1239.03 307.617 1241.98 307.232 1243.74 306.936L1245.15 306.7C1246.24 306.522 1247.43 306.285 1248.42 306.049L1248.45 309.6C1248.45 310.37 1248.52 311.672 1248.61 312.471L1249.22 318.509C1249.29 319.278 1249.45 320.581 1249.54 321.35L1250.05 325.346C1250.15 326.056 1250.34 327.033 1250.54 327.418C1250.76 327.862 1251.37 328.335 1251.88 328.572C1252.36 328.779 1253.13 329.075 1253.61 329.223C1254.06 329.371 1254.8 329.401 1255.18 329.401C1255.6 329.401 1256.02 329.371 1256.37 329.342L1257.07 329.253C1258 329.134 1259.41 328.868 1260.25 328.631C1261.24 328.365 1262.2 327.418 1262.4 326.471L1264.03 318.568C1264.19 317.828 1264.41 316.556 1264.54 315.727L1266.02 305.486C1266.08 304.983 1265.92 304.509 1265.6 304.125C1265.34 303.77 1264.99 303.562 1264.57 303.444Z" fill="white"/>
<g id="Group_13">
<path id="Vector_25" d="M1209.54 296.992C1219.09 297.998 1219.06 300.78 1219.06 302.378C1219.06 303.918 1218.93 306.552 1209.7 307.558C1200.95 308.505 1183.13 307.854 1181.85 307.854C1179.25 307.854 1177.14 305.397 1177.14 302.378C1177.14 299.36 1179.25 296.903 1181.85 296.903C1183.07 296.933 1201.14 296.133 1209.54 296.992Z" fill="#007980"/>
<path id="Vector_26" d="M1195.89 309.038C1190.66 309.038 1185.69 308.919 1183.32 308.86C1182.55 308.831 1182.04 308.831 1181.85 308.831C1178.64 308.831 1176.05 305.93 1176.05 302.408C1176.05 298.856 1178.64 295.985 1181.85 295.985C1182.04 295.985 1182.62 295.956 1183.51 295.926C1186.37 295.837 1192.33 295.63 1198.19 295.63C1203.16 295.63 1207.01 295.778 1209.64 296.045C1218.84 297.021 1220.12 299.656 1220.12 302.378C1220.12 304.894 1218.9 307.558 1209.83 308.535C1206.66 308.89 1201.98 309.038 1195.89 309.038ZM1198.23 297.554C1192.39 297.554 1186.46 297.761 1183.61 297.85C1182.68 297.88 1182.04 297.909 1181.85 297.909C1179.83 297.909 1178.19 299.922 1178.19 302.408C1178.19 304.894 1179.83 306.907 1181.85 306.907C1182.04 306.907 1182.58 306.907 1183.39 306.936C1185.76 306.996 1190.69 307.114 1195.89 307.114C1201.88 307.114 1206.5 306.936 1209.57 306.611C1217.97 305.693 1217.97 303.562 1217.97 302.408C1217.97 301.076 1217.97 298.886 1209.41 297.998C1206.85 297.702 1203.1 297.554 1198.23 297.554Z" fill="#007980"/>
</g>
</g>
</g>
<path id="X Assurence" d="M1323.32 295.688L1325.2 299.16L1327.07 295.688H1329.41L1326.52 300.623L1329.49 305.641H1327.12L1325.2 302.1L1323.27 305.641H1320.89L1323.86 300.623L1320.96 295.688H1323.32ZM1338.05 297.39L1335.35 305.641H1333.17L1336.86 295.688H1338.25L1338.05 297.39ZM1340.3 305.641L1337.59 297.39L1337.37 295.688H1338.77L1342.49 305.641H1340.3ZM1340.18 301.936V303.542H1334.92V301.936H1340.18ZM1347.29 303.597C1347.29 303.456 1347.25 303.328 1347.17 303.214C1347.08 303.1 1346.93 302.995 1346.71 302.9C1346.49 302.799 1346.17 302.708 1345.76 302.626C1345.38 302.544 1345.04 302.442 1344.71 302.319C1344.39 302.191 1344.11 302.038 1343.88 301.861C1343.65 301.683 1343.46 301.473 1343.33 301.232C1343.2 300.986 1343.13 300.705 1343.13 300.391C1343.13 300.081 1343.2 299.789 1343.33 299.516C1343.47 299.243 1343.66 299.001 1343.91 298.791C1344.17 298.577 1344.48 298.411 1344.84 298.292C1345.21 298.169 1345.63 298.108 1346.09 298.108C1346.73 298.108 1347.28 298.21 1347.74 298.415C1348.2 298.62 1348.56 298.903 1348.81 299.263C1349.06 299.618 1349.18 300.024 1349.18 300.48H1347.21C1347.21 300.288 1347.17 300.118 1347.09 299.967C1347.01 299.812 1346.89 299.691 1346.72 299.605C1346.56 299.514 1346.34 299.468 1346.08 299.468C1345.86 299.468 1345.67 299.507 1345.51 299.584C1345.35 299.657 1345.23 299.757 1345.14 299.885C1345.06 300.008 1345.02 300.145 1345.02 300.295C1345.02 300.409 1345.04 300.512 1345.09 300.603C1345.14 300.689 1345.22 300.769 1345.33 300.842C1345.44 300.915 1345.58 300.983 1345.75 301.047C1345.93 301.106 1346.15 301.161 1346.41 301.211C1346.94 301.321 1347.42 301.464 1347.84 301.642C1348.25 301.815 1348.59 302.052 1348.83 302.353C1349.08 302.649 1349.2 303.039 1349.2 303.522C1349.2 303.85 1349.13 304.151 1348.98 304.424C1348.84 304.698 1348.63 304.937 1348.36 305.142C1348.08 305.342 1347.75 305.5 1347.37 305.614C1346.99 305.723 1346.57 305.778 1346.09 305.778C1345.4 305.778 1344.82 305.655 1344.34 305.409C1343.87 305.162 1343.51 304.85 1343.26 304.472C1343.02 304.089 1342.9 303.697 1342.9 303.296H1344.77C1344.78 303.565 1344.84 303.782 1344.97 303.946C1345.1 304.11 1345.27 304.228 1345.47 304.301C1345.68 304.374 1345.9 304.41 1346.13 304.41C1346.39 304.41 1346.6 304.376 1346.77 304.308C1346.94 304.235 1347.07 304.139 1347.15 304.021C1347.24 303.898 1347.29 303.757 1347.29 303.597ZM1354.48 303.597C1354.48 303.456 1354.44 303.328 1354.36 303.214C1354.28 303.1 1354.12 302.995 1353.9 302.9C1353.68 302.799 1353.36 302.708 1352.95 302.626C1352.58 302.544 1352.23 302.442 1351.9 302.319C1351.58 302.191 1351.31 302.038 1351.07 301.861C1350.84 301.683 1350.65 301.473 1350.52 301.232C1350.39 300.986 1350.32 300.705 1350.32 300.391C1350.32 300.081 1350.39 299.789 1350.52 299.516C1350.66 299.243 1350.85 299.001 1351.1 298.791C1351.36 298.577 1351.67 298.411 1352.03 298.292C1352.4 298.169 1352.82 298.108 1353.28 298.108C1353.92 298.108 1354.47 298.21 1354.93 298.415C1355.4 298.62 1355.75 298.903 1356 299.263C1356.25 299.618 1356.37 300.024 1356.37 300.48H1354.41C1354.41 300.288 1354.36 300.118 1354.28 299.967C1354.2 299.812 1354.08 299.691 1353.91 299.605C1353.75 299.514 1353.53 299.468 1353.27 299.468C1353.05 299.468 1352.86 299.507 1352.7 299.584C1352.54 299.657 1352.42 299.757 1352.33 299.885C1352.25 300.008 1352.21 300.145 1352.21 300.295C1352.21 300.409 1352.23 300.512 1352.28 300.603C1352.33 300.689 1352.41 300.769 1352.52 300.842C1352.63 300.915 1352.77 300.983 1352.94 301.047C1353.12 301.106 1353.34 301.161 1353.6 301.211C1354.13 301.321 1354.61 301.464 1355.03 301.642C1355.45 301.815 1355.78 302.052 1356.03 302.353C1356.27 302.649 1356.39 303.039 1356.39 303.522C1356.39 303.85 1356.32 304.151 1356.18 304.424C1356.03 304.698 1355.82 304.937 1355.55 305.142C1355.27 305.342 1354.95 305.5 1354.56 305.614C1354.18 305.723 1353.76 305.778 1353.28 305.778C1352.6 305.778 1352.01 305.655 1351.53 305.409C1351.06 305.162 1350.7 304.85 1350.45 304.472C1350.21 304.089 1350.09 303.697 1350.09 303.296H1351.96C1351.97 303.565 1352.04 303.782 1352.16 303.946C1352.3 304.11 1352.46 304.228 1352.66 304.301C1352.87 304.374 1353.09 304.41 1353.32 304.41C1353.58 304.41 1353.79 304.376 1353.96 304.308C1354.13 304.235 1354.26 304.139 1354.34 304.021C1354.43 303.898 1354.48 303.757 1354.48 303.597ZM1362.05 303.87V298.244H1364.02V305.641H1362.16L1362.05 303.87ZM1362.27 302.353L1362.85 302.339C1362.85 302.831 1362.79 303.289 1362.68 303.713C1362.56 304.132 1362.39 304.497 1362.16 304.807C1361.94 305.112 1361.65 305.352 1361.3 305.525C1360.96 305.693 1360.55 305.778 1360.08 305.778C1359.72 305.778 1359.39 305.728 1359.08 305.627C1358.78 305.522 1358.52 305.361 1358.3 305.142C1358.09 304.919 1357.92 304.634 1357.8 304.287C1357.68 303.937 1357.62 303.515 1357.62 303.023V298.244H1359.59V303.036C1359.59 303.255 1359.61 303.44 1359.66 303.59C1359.72 303.741 1359.79 303.864 1359.89 303.959C1359.98 304.055 1360.09 304.123 1360.22 304.164C1360.35 304.205 1360.5 304.226 1360.66 304.226C1361.07 304.226 1361.38 304.144 1361.62 303.98C1361.85 303.816 1362.02 303.592 1362.12 303.31C1362.22 303.023 1362.27 302.704 1362.27 302.353ZM1367.49 299.858V305.641H1365.52V298.244H1367.37L1367.49 299.858ZM1369.72 298.197L1369.68 300.022C1369.59 300.008 1369.47 299.997 1369.33 299.988C1369.2 299.974 1369.08 299.967 1368.97 299.967C1368.69 299.967 1368.45 300.004 1368.25 300.077C1368.05 300.145 1367.88 300.247 1367.74 300.384C1367.61 300.521 1367.51 300.687 1367.44 300.883C1367.38 301.079 1367.34 301.302 1367.33 301.553L1366.94 301.43C1366.94 300.952 1366.98 300.512 1367.08 300.111C1367.17 299.705 1367.31 299.352 1367.5 299.051C1367.68 298.75 1367.91 298.518 1368.18 298.354C1368.45 298.19 1368.76 298.108 1369.1 298.108C1369.21 298.108 1369.32 298.117 1369.44 298.135C1369.55 298.149 1369.64 298.169 1369.72 298.197ZM1373.91 305.778C1373.34 305.778 1372.83 305.687 1372.37 305.504C1371.91 305.317 1371.53 305.06 1371.21 304.732C1370.89 304.404 1370.65 304.023 1370.48 303.59C1370.31 303.153 1370.23 302.688 1370.23 302.196V301.922C1370.23 301.362 1370.31 300.849 1370.47 300.384C1370.63 299.919 1370.86 299.516 1371.15 299.174C1371.45 298.832 1371.82 298.57 1372.25 298.388C1372.68 298.201 1373.16 298.108 1373.7 298.108C1374.22 298.108 1374.68 298.194 1375.09 298.368C1375.5 298.541 1375.84 298.787 1376.11 299.106C1376.39 299.425 1376.6 299.808 1376.74 300.254C1376.88 300.696 1376.95 301.188 1376.95 301.731V302.551H1371.07V301.239H1375.02V301.088C1375.02 300.815 1374.97 300.571 1374.86 300.357C1374.77 300.138 1374.62 299.965 1374.43 299.837C1374.23 299.71 1373.98 299.646 1373.68 299.646C1373.42 299.646 1373.19 299.703 1373.01 299.817C1372.82 299.931 1372.67 300.09 1372.55 300.295C1372.43 300.5 1372.35 300.742 1372.29 301.02C1372.23 301.293 1372.21 301.594 1372.21 301.922V302.196C1372.21 302.492 1372.25 302.765 1372.33 303.016C1372.42 303.267 1372.54 303.483 1372.69 303.665C1372.85 303.848 1373.04 303.989 1373.27 304.089C1373.49 304.189 1373.75 304.24 1374.04 304.24C1374.39 304.24 1374.72 304.171 1375.03 304.035C1375.34 303.893 1375.61 303.681 1375.83 303.399L1376.79 304.438C1376.63 304.661 1376.42 304.875 1376.15 305.08C1375.89 305.285 1375.57 305.454 1375.19 305.586C1374.82 305.714 1374.39 305.778 1373.91 305.778ZM1380 299.824V305.641H1378.03V298.244H1379.88L1380 299.824ZM1379.71 301.683H1379.18C1379.18 301.136 1379.25 300.644 1379.39 300.206C1379.53 299.764 1379.73 299.388 1379.99 299.078C1380.24 298.764 1380.54 298.525 1380.89 298.361C1381.25 298.192 1381.65 298.108 1382.08 298.108C1382.43 298.108 1382.75 298.158 1383.03 298.258C1383.32 298.358 1383.57 298.518 1383.77 298.737C1383.98 298.955 1384.14 299.245 1384.25 299.605C1384.36 299.965 1384.42 300.405 1384.42 300.924V305.641H1382.44V300.917C1382.44 300.589 1382.39 300.334 1382.3 300.152C1382.21 299.969 1382.08 299.842 1381.9 299.769C1381.73 299.691 1381.51 299.653 1381.26 299.653C1380.99 299.653 1380.76 299.705 1380.57 299.81C1380.37 299.915 1380.22 300.061 1380.09 300.247C1379.96 300.43 1379.87 300.644 1379.81 300.89C1379.74 301.136 1379.71 301.4 1379.71 301.683ZM1388.97 304.24C1389.22 304.24 1389.43 304.194 1389.62 304.103C1389.8 304.007 1389.95 303.875 1390.05 303.706C1390.16 303.533 1390.22 303.33 1390.23 303.098H1392.08C1392.07 303.618 1391.93 304.08 1391.66 304.486C1391.39 304.887 1391.02 305.203 1390.56 305.436C1390.1 305.664 1389.59 305.778 1389.02 305.778C1388.44 305.778 1387.94 305.682 1387.51 305.491C1387.09 305.299 1386.73 305.035 1386.45 304.698C1386.17 304.356 1385.96 303.959 1385.82 303.508C1385.67 303.052 1385.6 302.565 1385.6 302.045V301.847C1385.6 301.323 1385.67 300.835 1385.82 300.384C1385.96 299.928 1386.17 299.532 1386.45 299.195C1386.73 298.853 1387.09 298.586 1387.51 298.395C1387.94 298.203 1388.43 298.108 1389 298.108C1389.61 298.108 1390.14 298.224 1390.59 298.456C1391.05 298.689 1391.41 299.021 1391.67 299.454C1391.94 299.883 1392.07 300.391 1392.08 300.979H1390.23C1390.22 300.733 1390.17 300.509 1390.07 300.309C1389.97 300.108 1389.83 299.949 1389.64 299.83C1389.46 299.707 1389.24 299.646 1388.97 299.646C1388.68 299.646 1388.45 299.707 1388.26 299.83C1388.08 299.949 1387.94 300.113 1387.84 300.323C1387.74 300.528 1387.67 300.762 1387.63 301.027C1387.59 301.286 1387.57 301.56 1387.57 301.847V302.045C1387.57 302.332 1387.59 302.608 1387.63 302.872C1387.66 303.137 1387.73 303.371 1387.83 303.577C1387.94 303.782 1388.08 303.943 1388.26 304.062C1388.45 304.18 1388.68 304.24 1388.97 304.24ZM1396.62 305.778C1396.05 305.778 1395.53 305.687 1395.08 305.504C1394.62 305.317 1394.24 305.06 1393.92 304.732C1393.6 304.404 1393.36 304.023 1393.19 303.59C1393.02 303.153 1392.94 302.688 1392.94 302.196V301.922C1392.94 301.362 1393.02 300.849 1393.18 300.384C1393.34 299.919 1393.57 299.516 1393.86 299.174C1394.16 298.832 1394.53 298.57 1394.96 298.388C1395.38 298.201 1395.87 298.108 1396.41 298.108C1396.93 298.108 1397.39 298.194 1397.8 298.368C1398.21 298.541 1398.54 298.787 1398.82 299.106C1399.1 299.425 1399.31 299.808 1399.45 300.254C1399.59 300.696 1399.66 301.188 1399.66 301.731V302.551H1393.78V301.239H1397.72V301.088C1397.72 300.815 1397.67 300.571 1397.57 300.357C1397.48 300.138 1397.33 299.965 1397.14 299.837C1396.94 299.71 1396.69 299.646 1396.38 299.646C1396.12 299.646 1395.9 299.703 1395.71 299.817C1395.53 299.931 1395.38 300.09 1395.26 300.295C1395.14 300.5 1395.06 300.742 1395 301.02C1394.94 301.293 1394.91 301.594 1394.91 301.922V302.196C1394.91 302.492 1394.96 302.765 1395.04 303.016C1395.12 303.267 1395.25 303.483 1395.4 303.665C1395.56 303.848 1395.75 303.989 1395.97 304.089C1396.2 304.189 1396.46 304.24 1396.75 304.24C1397.1 304.24 1397.43 304.171 1397.74 304.035C1398.05 303.893 1398.31 303.681 1398.54 303.399L1399.49 304.438C1399.34 304.661 1399.13 304.875 1398.86 305.08C1398.59 305.285 1398.28 305.454 1397.9 305.586C1397.53 305.714 1397.1 305.778 1396.62 305.778Z" fill="#0F7EBF"/>
</g>
</g>

<style>

#planall{
position:relative !important;

transform:translatex(20%) ;

  animation: animate 10s infinite linear;
 
}

@keyframes animate {
  from {s

transform:translatex(20%) ;
  }

  to {

transform:translatex(-100%) ;
  }
}



</style>
</svg>
