<svg width="1400" height="401" viewBox="0 0 1400 401" fill="none" xmlns="http://www.w3.org/2000/svg">

<path id="cloud1" opacity="0.5" d="M214.241 177.783C213.351 171.232 210.84 165.012 206.94 159.697C203.039 154.383 197.874 150.144 191.921 147.372C185.969 144.6 179.42 143.384 172.878 143.836C166.337 144.289 160.014 146.395 154.492 149.961C150.251 141.425 143.863 134.161 135.966 128.894C128.069 123.628 118.94 120.544 109.491 119.949C100.043 119.355 90.6045 121.272 82.1201 125.508C73.6357 129.744 66.4021 136.151 61.1419 144.089C57.4031 143.472 53.5758 143.682 49.9254 144.705C46.2751 145.728 42.8892 147.54 40.0025 150.014C37.1159 152.489 34.7976 155.567 33.2086 159.036C31.6195 162.504 30.7978 166.28 30.8002 170.101C30.7922 171.971 30.981 173.836 31.3633 175.665C23.7662 176.829 16.8323 180.695 11.8141 186.564C6.79595 192.433 4.02435 199.918 4 207.667V207.667C4.02229 216.244 7.41065 224.463 13.4244 230.528C19.4381 236.593 27.588 240.01 36.0927 240.032H201.967C210.472 240.01 218.622 236.593 224.635 230.528C230.649 224.463 234.037 216.244 234.06 207.667V207.667C234.043 201.271 232.153 195.022 228.627 189.706C225.101 184.389 220.096 180.241 214.241 177.783V177.783Z" fill="#E4E4E4"/>
<path id="cloud2" opacity="0.5" d="M1362.17 326.819H1360.65C1360.65 326.503 1360.65 326.193 1360.65 325.877C1360.66 313.432 1356.16 301.345 1347.88 291.536C1339.61 281.727 1328.02 274.76 1314.97 271.744C1301.92 268.727 1288.16 269.834 1275.87 274.887C1263.58 279.941 1253.46 288.652 1247.14 299.635C1239.64 296.385 1231.09 295.908 1223.23 298.3C1215.37 300.693 1208.79 305.775 1204.84 312.507C1200.99 310.551 1196.75 309.343 1192.38 308.956C1188 308.569 1183.59 309.012 1179.41 310.257C1175.23 311.502 1171.36 313.523 1168.05 316.197C1164.75 318.872 1162.06 322.142 1160.17 325.809C1158.27 329.476 1157.2 333.462 1157.03 337.524C1156.86 341.585 1157.58 345.637 1159.16 349.43C1160.74 353.224 1163.13 356.68 1166.2 359.587C1169.27 362.494 1172.95 364.791 1177.02 366.337C1178.06 373.695 1181.96 380.453 1187.98 385.356C1194 390.26 1201.74 392.975 1209.76 393H1362.17C1370.92 392.977 1379.3 389.752 1385.49 384.029C1391.67 378.306 1395.16 370.551 1395.18 362.457V357.355C1395.16 349.263 1391.67 341.51 1385.49 335.788C1379.3 330.066 1370.92 326.842 1362.17 326.819V326.819Z" fill="#E4E4E4"/>

<path   id="cloud3" opacity="0.5" d="M1044.98 71.0207H891.006C888.605 66.2338 887.599 60.6383 888.145 55.1022C888.691 49.5661 890.757 44.399 894.025 40.4023C897.292 36.4057 901.577 33.803 906.215 32.9979C910.853 32.1929 915.585 33.2306 919.676 35.95C922.276 30.2453 926.61 25.9369 931.792 23.9056C936.974 21.8742 942.613 22.2733 947.556 25.0213C951.728 15.7213 958.394 8.34629 966.495 4.06831C974.596 -0.209663 983.667 -1.14515 992.266 1.41052C1000.87 3.96618 1008.5 9.86637 1013.96 18.1734C1019.41 26.4805 1022.38 36.7178 1022.38 47.2585C1022.38 47.5237 1022.38 47.7889 1022.38 48.0542H1023.39C1028.73 48.0812 1033.87 50.433 1037.85 54.665C1041.83 58.8969 1044.37 64.7156 1044.98 71.0207V71.0207Z" fill="#E4E4E4"/>



<defs>
<filter id="filter0_d_42_2" x="0" y="0" width="1399.18" height="401" filterUnits="userSpaceOnUse" color-interpolation-filters="sRGB">
<feFlood flood-opacity="0" result="BackgroundImageFix"/>
<feColorMatrix in="SourceAlpha" type="matrix" values="0 0 0 0 0 0 0 0 0 0 0 0 0 0 0 0 0 0 127 0" result="hardAlpha"/>
<feOffset dy="4"/>
<feGaussianBlur stdDeviation="2"/>
<feComposite in2="hardAlpha" operator="out"/>
<feColorMatrix type="matrix" values="0 0 0 0 0 0 0 0 0 0 0 0 0 0 0 0 0 0 0.25 0"/>
<feBlend mode="normal" in2="BackgroundImageFix" result="effect1_dropShadow_42_2"/>
<feBlend mode="normal" in="SourceGraphic" in2="effect1_dropShadow_42_2" result="shape"/>
</filter>
</defs>

<style>

#cloud3{

position:relative !important;

transform:translatex(10%) ;

  animation: animate3 26s infinite linear;
 
}

@keyframes animate3 {
  from {

transform:translatex(10%) ;
  }

  to {

transform:translatex(-80%) ;
  }
}









#cloud2{

position:relative !important;


transform:translatex(0%);
  animation: animate2 26s infinite linear;
 
}

@keyframes animate2 {
  from {
transform:translatex(0%);
  }

  to {

transform:translatex(-100%);
  }
}










#cloud1{

position:relative !important;


transform:translatex(-10%);
  animation: animate1 26s infinite linear;
 
}

@keyframes animate1 {
  from {
transform:translatex(-10%);
  }

  to {
transform:translatex(100%);
  }
}

</style>
</svg>
