<svg width="927" height="886" viewBox="0 0 927 886" fill="none" xmlns="http://www.w3.org/2000/svg">
<g id="home">
<g id="home 1">
<g id="Group">
<g id="Layer 2">
<g id="Layer 1">
<g id="Group_2">
<path id="Vector" d="M806.816 289.976C873.099 289.976 926.832 242.624 926.832 184.212C926.832 125.8 873.099 78.4478 806.816 78.4478C740.532 78.4478 686.799 125.8 686.799 184.212C686.799 242.624 740.532 289.976 806.816 289.976Z" fill="#98D09E"/>
<path id="Vector_2" d="M846.259 176.189C845.635 175.786 844.854 175.618 844.089 175.722C843.324 175.826 842.637 176.193 842.179 176.743L806.917 219.125L791.727 199.241C791.286 198.692 790.619 198.318 789.869 198.197C789.119 198.076 788.345 198.218 787.713 198.594C787.08 198.969 786.639 199.547 786.484 200.205C786.329 200.863 786.473 201.548 786.883 202.114L803.915 224.384V488.996V534.614C803.941 535.28 804.26 535.912 804.805 536.375C805.349 536.838 806.076 537.097 806.833 537.097C807.59 537.097 808.317 536.838 808.862 536.375C809.406 535.912 809.725 535.28 809.752 534.614V224.44L846.905 179.785C847.36 179.232 847.547 178.544 847.426 177.869C847.305 177.195 846.885 176.591 846.259 176.189Z" fill="#476CA3"/>
<path id="Vector_3" d="M761.7 213.507H503.822H495.493L593.108 291.117V368.171H601.438H761.7H770.03V213.507H761.7Z" fill="#476CA3"/>
<g id="Group_3" style="mix-blend-mode:soft-light">
<g id="Vector_4" style="mix-blend-mode:soft-light">
<path d="M518.137 213.503V231.512L519.791 232.822V213.503H518.137Z" fill="white"/>
</g>
<g id="Vector_5" style="mix-blend-mode:soft-light">
<path d="M770.032 236.345V234.889H745.77V213.507H744.117V234.889H720.685V213.507H719.035V234.889H695.553V213.507H693.904V234.889H670.465V213.507H668.812V234.889H645.372V213.507H643.702V234.889H620.22V213.507H618.57V234.889H595.099V213.507H593.446V234.889H570.007V213.507H568.357V234.889H544.918V213.507H543.269V234.889H522.373L524.204 236.345H543.258V251.493L544.908 252.806V236.345H568.347V257.002H550.186L552.013 258.456H568.333V271.43L569.982 272.743V258.456H593.421V279.149H578.071L579.901 280.603H593.464V301.297H593.109V302.751H593.464V323.407H593.109V324.864H593.464V345.527H593.109V346.981H593.464V368.178H595.099V346.981H618.581V368.178H620.23V346.981H643.702V368.178H645.351V346.981H668.79V368.178H670.443V346.981H693.882V368.178H695.532V346.981H719.014V368.178H720.685V346.981H744.124V368.178H745.777V346.981H770.039V345.527H745.777V324.87H770.039V323.414H745.777V302.757H770.039V301.303H745.777V280.603H770.039V279.149H745.777V258.456H770.039V257.002H745.777V236.345H770.032ZM593.45 257.002H570.011V236.345H593.45V257.002ZM618.584 345.527H595.099V324.87H618.581L618.584 345.527ZM618.584 323.414H595.099V302.757H618.581L618.584 323.414ZM618.584 301.303H595.099V280.603H618.581L618.584 301.303ZM618.584 279.156H595.099V258.456H618.581L618.584 279.156ZM618.584 257.008H595.099V236.345H618.581L618.584 257.008ZM643.702 345.527H620.22V324.87H643.702V345.527ZM643.702 323.414H620.22V302.757H643.702V323.414ZM643.702 301.303H620.22V280.603H643.702V301.303ZM643.702 279.156H620.22V258.456H643.702V279.156ZM643.702 257.008H620.22V236.345H643.702V257.008ZM668.804 345.527H645.365V324.87H668.804V345.527ZM668.804 323.414H645.365V302.757H668.804V323.414ZM668.804 301.303H645.365V280.603H668.804V301.303ZM668.804 279.156H645.365V258.456H668.804V279.156ZM668.804 257.008H645.365V236.345H668.804V257.008ZM693.897 345.527H670.458V324.87H693.897V345.527ZM693.897 323.414H670.458V302.757H693.897V323.414ZM693.897 301.303H670.458V280.603H693.897V301.303ZM693.897 279.156H670.458V258.456H693.897V279.156ZM693.897 257.008H670.458V236.345H693.897V257.008ZM719.028 345.527H695.546V324.87H719.028V345.527ZM719.028 323.414H695.546V302.757H719.028V323.414ZM719.028 301.303H695.546V280.603H719.028V301.303ZM719.028 279.156H695.546V258.456H719.028V279.156ZM719.028 257.008H695.546V236.345H719.028V257.008ZM744.117 345.527H720.685V324.87H744.124L744.117 345.527ZM744.117 323.414H720.685V302.757H744.124L744.117 323.414ZM744.117 301.303H720.685V280.603H744.124L744.117 301.303ZM744.117 279.156H720.685V258.456H744.124L744.117 279.156ZM744.117 257.008H720.685V236.345H744.124L744.117 257.008Z" fill="white"/>
</g>
</g>
<path id="Vector_6" d="M391.104 130.509L189.15 289.348V526.475H391.132H593.111V291.117L391.104 130.509Z" fill="#E6E7E8"/>
<path id="Vector_7" d="M347.162 207.119V302.269H432.595V207.119H347.162Z" fill="white"/>
<path id="Vector_8" d="M425.346 213.507H354.406V295.885H425.346V213.507Z" fill="#476CA3"/>
<path id="Vector_9" d="M163.092 309.841L153.446 300.315L391.156 113.354L626.34 300.337L616.634 309.82L391.103 130.509L163.092 309.841Z" fill="#36478A"/>
<path id="Vector_10" d="M361.65 289.501V219.891H418.102H425.346V213.507H354.406V295.885H361.65V289.501Z" fill="#36478A"/>
<path id="Vector_11" d="M432.595 240.219H347.162V246.603H432.595V240.219Z" fill="white"/>
<path id="Vector_12" d="M425.346 246.603H354.406V252.988H425.346V246.603Z" fill="#36478A"/>
<path id="Vector_13" d="M593.111 422.028H189.15V526.472H593.111V422.028Z" fill="#D1D3D4"/>
<path id="Vector_14" d="M391.104 130.509L189.15 289.348V300.381L391.104 141.542L593.111 302.151V291.117L391.104 130.509Z" fill="#D1D3D4"/>
<path id="Vector_15" d="M248.676 368.171V463.323H334.11V368.171H248.676Z" fill="white"/>
<path id="Vector_16" d="M326.862 374.556H255.92V456.935H326.862V374.556Z" fill="#476CA3"/>
<path id="Vector_17" d="M263.164 450.551V380.94H319.618H326.862V374.556H255.92V456.935H263.164V450.551Z" fill="#36478A"/>
<path id="Vector_18" d="M326.862 407.654H255.92V414.038H326.862V407.654Z" fill="#36478A"/>
<path id="Vector_19" d="M334.11 401.27H248.676V407.654H334.11V401.27Z" fill="white"/>
<path id="Vector_20" d="M448.148 368.171V463.323H533.584V368.171H448.148Z" fill="white"/>
<path id="Vector_21" d="M526.339 374.556H455.393V456.935H526.339V374.556Z" fill="#476CA3"/>
<path id="Vector_22" d="M462.638 450.551V380.94H519.095H526.339V374.556H455.393V456.935H462.638V450.551Z" fill="#36478A"/>
<path id="Vector_23" d="M526.339 407.654H455.393V414.038H526.339V407.654Z" fill="#36478A"/>
<path id="Vector_24" d="M533.587 401.27H448.15V407.654H533.587V401.27Z" fill="white"/>
<path id="Vector_25" d="M593.111 504.775H189.15V526.472H593.111V504.775Z" fill="#BCBEC0"/>
<path id="Vector_26" d="M680.747 368.171H593.11V526.475H680.747V368.171Z" fill="#D1D3D4"/>
<path id="Vector_27" d="M749.009 368.171H733.149V526.475H749.009V368.171Z" fill="#D1D3D4"/>
<path id="Vector_28" d="M753.081 504.775H593.11V526.472H753.081V504.775Z" fill="#BCBEC0"/>
<path id="Vector_29" d="M753.081 456.935H593.11V463.321H753.081V456.935Z" fill="#BCBEC0"/>
<path id="Vector_30" d="M601.131 481.361H593.11V526.472H601.131V481.361Z" fill="#BCBEC0"/>
<path id="Vector_31" d="M631.52 481.361H623.499V526.472H631.52V481.361Z" fill="#BCBEC0"/>
<path id="Vector_32" d="M661.913 481.361H653.892V526.472H661.913V481.361Z" fill="#BCBEC0"/>
<path id="Vector_33" d="M692.302 481.361H684.281V526.472H692.302V481.361Z" fill="#BCBEC0"/>
<path id="Vector_34" d="M722.691 481.361H714.67V526.472H722.691V481.361Z" fill="#BCBEC0"/>
<path id="Vector_35" d="M753.081 481.361H745.059V526.472H753.081V481.361Z" fill="#BCBEC0"/>
<path id="Vector_36" d="M599.265 456.935H594.972V502.046H599.265V456.935Z" fill="#BCBEC0"/>
<path id="Vector_37" d="M629.658 456.935H625.365V502.046H629.658V456.935Z" fill="#BCBEC0"/>
<path id="Vector_38" d="M660.047 456.935H655.754V502.046H660.047V456.935Z" fill="#BCBEC0"/>
<path id="Vector_39" d="M690.436 456.935H686.143V502.046H690.436V456.935Z" fill="#BCBEC0"/>
<path id="Vector_40" d="M720.765 456.935H716.472V502.046H720.765V456.935Z" fill="#BCBEC0"/>
<path id="Vector_41" d="M751.158 456.935H746.865V502.046H751.158V456.935Z" fill="#BCBEC0"/>
<path id="Vector_42" d="M770.03 368.171H593.11V375.443H770.03V368.171Z" fill="#36478A"/>
<path id="Vector_43" d="M790.721 537.177C794.743 532.459 797.195 526.847 797.801 520.969C798.407 515.092 797.143 509.182 794.151 503.903C791.159 498.623 786.557 494.182 780.862 491.079C775.167 487.975 768.603 486.331 761.907 486.331C755.21 486.331 748.647 487.975 742.951 491.079C737.256 494.182 732.654 498.623 729.662 503.903C726.67 509.182 725.406 515.092 726.012 520.969C726.618 526.847 729.07 532.459 733.092 537.177H790.721Z" fill="#98D09E"/>
<path id="Vector_44" d="M602.66 537.177C609.822 528.777 614.187 518.785 615.266 508.322C616.345 497.858 614.094 487.336 608.767 477.936C603.44 468.537 595.246 460.631 585.106 455.105C574.965 449.579 563.278 446.652 551.356 446.652C539.433 446.652 527.746 449.579 517.606 455.105C507.465 460.631 499.272 468.537 493.944 477.936C488.617 487.336 486.367 497.858 487.445 508.322C488.524 518.785 492.889 528.777 500.051 537.177H602.66Z" fill="#98D09E"/>
<path id="Vector_45" d="M630.747 537.177C634.984 532.209 637.567 526.298 638.206 520.108C638.844 513.918 637.514 507.694 634.363 502.133C631.212 496.572 626.365 491.895 620.367 488.626C614.368 485.357 607.455 483.625 600.402 483.625C593.349 483.625 586.436 485.357 580.437 488.626C574.439 491.895 569.592 496.572 566.441 502.133C563.29 507.694 561.959 513.918 562.598 520.108C563.237 526.298 565.82 532.209 570.057 537.177H630.747Z" fill="#79C89F"/>
<path id="Vector_46" d="M224.779 537.177C230.049 530.996 233.262 523.644 234.056 515.944C234.85 508.244 233.194 500.502 229.274 493.585C225.354 486.668 219.326 480.85 211.864 476.784C204.403 472.717 195.803 470.563 187.03 470.563C178.257 470.563 169.658 472.717 162.196 476.784C154.735 480.85 148.706 486.668 144.786 493.585C140.866 500.502 139.211 508.244 140.005 515.944C140.799 523.644 144.011 530.996 149.281 537.177H224.779Z" fill="#79C89F"/>
<path id="Vector_47" d="M246.182 537.177C249.693 533.059 251.832 528.16 252.361 523.029C252.889 517.899 251.785 512.741 249.173 508.132C246.561 503.524 242.544 499.648 237.572 496.939C232.6 494.229 226.871 492.794 221.025 492.794C215.18 492.794 209.45 494.229 204.478 496.939C199.506 499.648 195.489 503.524 192.877 508.132C190.265 512.741 189.161 517.899 189.69 523.029C190.218 528.16 192.358 533.059 195.869 537.177H246.182Z" fill="#98D09E"/>
<path id="Vector_48" d="M129.599 298.424C201.175 298.424 259.198 247.289 259.198 184.212C259.198 121.134 201.175 70 129.599 70C58.0235 70 0 121.134 0 184.212C0 247.289 58.0235 298.424 129.599 298.424Z" fill="#79C89F"/>
<path id="Vector_49" d="M148.739 198.543C148.421 198.354 148.064 198.223 147.688 198.155C147.312 198.088 146.925 198.087 146.549 198.152C146.173 198.216 145.814 198.346 145.495 198.533C145.176 198.72 144.901 198.96 144.687 199.241L129.496 219.125L94.2432 176.743C94.0208 176.461 93.7366 176.221 93.4074 176.038C93.0782 175.854 92.7107 175.731 92.3265 175.674C91.9423 175.618 91.5491 175.63 91.1702 175.709C90.7913 175.789 90.4343 175.934 90.1202 176.137C89.8061 176.34 89.5412 176.597 89.3412 176.891C89.1412 177.186 89.0101 177.513 88.9556 177.853C88.9012 178.192 88.9244 178.538 89.024 178.87C89.1236 179.202 89.2975 179.513 89.5355 179.785L126.679 224.44V534.614C126.679 535.296 126.987 535.95 127.535 536.433C128.082 536.916 128.825 537.187 129.599 537.187C130.373 537.187 131.116 536.916 131.664 536.433C132.211 535.95 132.519 535.296 132.519 534.614V224.383L149.516 202.114C149.949 201.549 150.111 200.856 149.965 200.187C149.819 199.518 149.378 198.927 148.739 198.543V198.543Z" fill="#476CA3"/>
<path id="Vector_50" d="M610.223 435.138H294.816C293.588 435.141 292.411 435.573 291.542 436.338C290.673 437.104 290.183 438.141 290.18 439.224V866.169C290.183 867.251 290.673 868.289 291.542 869.054C292.411 869.82 293.588 870.252 294.816 870.255H610.223C611.452 870.252 612.63 869.82 613.499 869.054C614.369 868.289 614.859 867.252 614.864 866.169V439.224C614.859 438.141 614.369 437.103 613.499 436.338C612.63 435.572 611.452 435.141 610.223 435.138V435.138Z" fill="#231F20"/>
<path id="Vector_51" d="M566.499 853.301C567.737 853.202 568.882 852.681 569.692 851.85L592.042 830.153C592.899 829.183 593.345 827.98 593.301 826.752V452.09H311.725V853.301H566.499Z" fill="#F1F2F2"/>
<path id="Vector_52" d="M566.499 853.301C567.737 853.202 568.882 852.681 569.692 851.851L592.042 830.161C592.899 829.191 593.345 827.988 593.301 826.76C593.301 828.548 590.68 828.604 590.68 828.604H569.241C567.169 828.604 567.393 830.233 567.393 830.233V849.966C567.428 852.357 566.499 853.301 566.499 853.301Z" fill="#D1D3D4"/>
<path id="Vector_53" d="M505.671 462.769H399.369C393.047 462.769 390.787 457.566 390.475 454.815V454.659V440.214H393.987V454.568C394.079 455.193 394.895 459.67 399.38 459.67H505.681C510.201 459.67 510.985 455.209 511.074 454.574V440.214H514.568V454.737V454.815C514.256 457.563 511.996 462.769 505.671 462.769Z" fill="#A7A9AC"/>
<path id="Vector_54" d="M336.792 522.833L337.697 511.334L339.953 511.5L339.049 522.999L336.792 522.833Z" fill="#6D6E71"/>
<path id="Vector_55" d="M347.201 511.5L351.792 520.082L352.469 511.328L353.786 511.494L352.767 522.893L351.114 522.727L346.339 514.01L345.629 522.993L344.466 522.827L345.367 511.328L347.201 511.5Z" fill="#6D6E71"/>
<path id="Vector_56" d="M365.659 512.494C363.705 512.381 362.381 512.572 361.693 513.057C361.005 513.541 360.657 514.082 360.657 514.679C360.657 515.722 361.686 516.23 363.744 516.205C365.801 516.18 366.829 516.701 366.826 517.768C366.826 518.875 366.131 519.936 364.74 520.951C363.35 521.966 361.438 522.828 359.004 523.537L358.479 522.599C360.05 522.194 361.503 521.493 362.736 520.545C363.791 519.682 364.318 518.952 364.318 518.356C364.318 517.522 363.321 517.105 361.328 517.105C359.334 517.105 358.337 516.272 358.337 514.604C358.337 513.519 359.047 512.688 360.466 512.103C362.025 511.498 363.743 511.281 365.432 511.478L365.659 512.494Z" fill="#6D6E71"/>
<path id="Vector_57" d="M374.152 511.565L373.624 518.259C373.524 519.605 373.676 520.556 374.078 521.11C374.227 521.357 374.448 521.564 374.719 521.71C374.99 521.856 375.3 521.935 375.617 521.939C376.596 521.939 377.318 521.679 377.781 521.16C378.245 520.641 378.526 519.741 378.626 518.459L379.19 511.365L380.658 511.465L380.055 518.259C379.883 520.135 379.419 521.395 378.665 522.039C378.297 522.354 377.862 522.601 377.384 522.766C376.906 522.931 376.396 523.01 375.883 522.999C374.178 522.999 372.968 522.607 372.254 521.823C371.54 521.039 371.232 519.973 371.332 518.625L371.896 511.4L374.152 511.565Z" fill="#6D6E71"/>
<path id="Vector_58" d="M388.059 511.5C389.561 511.595 391.023 511.974 392.345 512.61C393.65 513.235 394.303 514.025 394.303 514.98C394.303 515.381 394.206 515.778 394.017 516.144C393.829 516.509 393.554 516.835 393.21 517.099C392.457 517.71 391.557 518.163 390.578 518.425L394.264 522.177L393.285 523.039L389.262 518.762C389.009 518.829 388.752 518.879 388.492 518.913C388.229 518.947 387.97 518.984 387.722 519.028L387.42 523.005L385.164 522.839L386.065 511.34L388.059 511.5ZM387.796 517.962C388.91 517.854 389.959 517.449 390.805 516.802C391.63 516.162 392.044 515.466 392.047 514.714C392.047 514.139 391.671 513.636 390.918 513.207C390.12 512.764 389.19 512.539 388.247 512.56L387.796 517.962Z" fill="#6D6E71"/>
<path id="Vector_59" d="M406.964 511.334L407.866 522.833L405.609 522.999L405.255 518.656L401.757 519.022L399.426 523.086L398.362 522.589L404.68 511.487L406.964 511.334ZM402.378 517.993L405.216 517.662L404.861 513.598L402.378 517.993Z" fill="#6D6E71"/>
<path id="Vector_60" d="M415.009 511.5L419.599 520.082L420.277 511.328L421.593 511.494L420.575 522.893L418.922 522.727L414.147 514.01L413.438 522.993L412.274 522.827L413.175 511.328L415.009 511.5Z" fill="#6D6E71"/>
<path id="Vector_61" d="M435.988 512.028C436.845 512.469 437.499 513.162 437.833 513.985L436.666 514.348C436.343 513.717 435.805 513.19 435.126 512.841C434.314 512.509 433.423 512.356 432.529 512.394C431.226 512.394 430.217 512.93 429.503 514.001C428.799 515.04 428.431 516.23 428.438 517.44C428.438 518.878 428.883 519.989 429.772 520.773C430.148 521.135 430.603 521.427 431.111 521.629C431.618 521.831 432.167 521.94 432.724 521.948C433.555 521.962 434.368 521.734 435.038 521.301C435.662 520.92 436.131 520.372 436.375 519.738L438.103 519.538C437.72 520.575 436.984 521.483 435.996 522.139C435.071 522.727 433.868 523.02 432.387 523.017C430.778 523.055 429.21 522.565 427.988 521.642C426.781 520.727 426.179 519.329 426.182 517.449C426.143 515.861 426.795 514.319 428.005 513.141C428.601 512.554 429.336 512.089 430.158 511.78C430.98 511.471 431.87 511.325 432.763 511.353C433.888 511.315 435.003 511.549 435.988 512.028V512.028Z" fill="#6D6E71"/>
<path id="Vector_62" d="M450.189 511.928L450.079 512.922L445.527 512.494L445.225 516.336L449.703 516.736L449.589 517.731L445.111 517.365L444.757 521.773L449.834 521.307L449.948 522.305L442.386 522.999L443.327 511.334L450.189 511.928Z" fill="#6D6E71"/>
<path id="Vector_63" d="M475.225 512.028C476.082 512.469 476.735 513.162 477.07 513.985L475.899 514.354C475.576 513.722 475.036 513.195 474.356 512.847C473.545 512.515 472.655 512.362 471.762 512.4C470.457 512.4 469.448 512.936 468.736 514.007C468.033 515.047 467.665 516.236 467.672 517.446C467.672 518.884 468.117 519.995 469.006 520.779C469.381 521.142 469.837 521.433 470.344 521.635C470.852 521.837 471.401 521.946 471.958 521.955C472.788 521.968 473.601 521.74 474.271 521.307C474.894 520.926 475.361 520.378 475.605 519.744L477.336 519.544C476.953 520.581 476.217 521.489 475.229 522.145C474.303 522.733 473.1 523.024 471.621 523.024C470.01 523.061 468.442 522.571 467.218 521.648C466.016 520.733 465.415 519.336 465.412 517.456C465.375 515.867 466.028 514.325 467.239 513.147C467.834 512.56 468.569 512.094 469.391 511.785C470.214 511.476 471.103 511.331 471.997 511.359C473.122 511.319 474.238 511.55 475.225 512.028V512.028Z" fill="#6D6E71"/>
<path id="Vector_64" d="M492.516 512.957C493.634 514.077 494.226 515.53 494.173 517.021C494.234 518.595 493.598 520.127 492.399 521.295C491.859 521.834 491.193 522.265 490.446 522.557C489.7 522.849 488.891 522.995 488.075 522.986C487.262 522.994 486.457 522.853 485.71 522.574C484.962 522.295 484.288 521.883 483.729 521.364C482.513 520.282 481.905 518.878 481.905 517.152C481.905 515.427 482.482 514.029 483.636 512.96C484.2 512.423 484.888 511.998 485.653 511.715C486.419 511.433 487.245 511.299 488.075 511.322C489.931 511.33 491.412 511.875 492.516 512.957ZM485.421 513.82C484.581 514.77 484.162 516.239 484.162 518.228C484.131 518.729 484.221 519.229 484.426 519.698C484.63 520.166 484.943 520.591 485.346 520.945C485.692 521.256 486.104 521.504 486.559 521.675C487.014 521.845 487.502 521.935 487.996 521.939C489.101 521.939 490.029 521.392 490.781 520.298C491.563 519.106 491.953 517.747 491.91 516.371C491.91 515.001 491.583 513.996 490.93 513.354C490.598 513.034 490.19 512.782 489.735 512.616C489.28 512.45 488.79 512.374 488.298 512.394C487.224 512.394 486.268 512.869 485.428 513.82H485.421Z" fill="#6D6E71"/>
<path id="Vector_65" d="M510.638 522.999L509.928 513.932L505.944 522.614L503.688 522.78L501.914 515.058L499.785 523.011L498.544 522.649L501.552 511.512L503.812 511.347L505.767 520.229L509.751 511.512L512.007 511.347L512.912 522.846L510.638 522.999Z" fill="#6D6E71"/>
<path id="Vector_66" d="M520.181 511.5C521.689 511.597 523.157 511.975 524.488 512.61C525.805 513.235 526.464 514.025 526.464 514.979C526.464 515.861 525.955 516.678 524.938 517.431C523.921 518.183 522.223 518.713 519.844 519.022L519.542 522.999L517.286 522.833L518.187 511.334L520.181 511.5ZM519.918 517.962C521.036 517.852 522.091 517.448 522.944 516.802C523.786 516.162 524.207 515.466 524.207 514.714C524.207 514.138 523.824 513.636 523.058 513.207C522.252 512.765 521.318 512.54 520.369 512.56L519.918 517.962Z" fill="#6D6E71"/>
<path id="Vector_67" d="M539.09 511.334L539.994 522.833L537.738 522.999L537.383 518.656L533.885 519.022L531.554 523.086L530.49 522.589L536.809 511.487L539.09 511.334ZM534.503 517.993L537.341 517.662L536.986 513.598L534.503 517.993Z" fill="#6D6E71"/>
<path id="Vector_68" d="M547.132 511.5L551.719 520.082L552.397 511.328L553.713 511.494L552.698 522.893L551.042 522.727L546.267 514.01L545.557 522.993L544.39 522.827L545.291 511.328L547.132 511.5Z" fill="#6D6E71"/>
<path id="Vector_69" d="M559.758 511.134L563.37 516.24L566.754 511.334L567.882 511.863L563.82 517.803L563.409 523.005L561.153 522.839L561.564 517.668L557.804 512.335L559.758 511.134Z" fill="#6D6E71"/>
<path id="Vector_70" d="M331.453 540.641C341.489 540.523 351.522 540.473 361.558 540.385L391.664 540.238C401.7 540.176 411.736 540.185 421.769 540.163L451.874 540.116L481.98 540.16C492.016 540.185 502.052 540.16 512.085 540.235L542.19 540.382C552.227 540.469 562.263 540.523 572.296 540.641C562.263 540.76 552.227 540.813 542.19 540.901L512.085 541.048C502.052 541.11 492.016 541.095 481.98 541.12L451.874 541.167L421.769 541.12C411.736 541.098 401.7 541.12 391.664 541.045L361.558 540.898C351.522 540.81 341.489 540.76 331.453 540.641Z" fill="#D1D3D4"/>
<path id="Vector_71" d="M349.929 583.624H332.663C331.515 583.622 330.414 583.219 329.602 582.504C328.79 581.788 328.333 580.818 328.331 579.806V564.59C328.332 563.578 328.789 562.607 329.601 561.891C330.413 561.176 331.514 560.773 332.663 560.772H349.929C351.078 560.773 352.179 561.176 352.991 561.891C353.803 562.607 354.26 563.578 354.261 564.59V579.806C354.259 580.818 353.802 581.788 352.99 582.504C352.178 583.219 351.078 583.622 349.929 583.624V583.624ZM332.663 561.135C331.63 561.141 330.641 561.505 329.911 562.149C329.18 562.792 328.767 563.664 328.76 564.574V579.791C328.766 580.701 329.179 581.573 329.91 582.217C330.64 582.861 331.63 583.225 332.663 583.23H349.929C350.963 583.225 351.952 582.861 352.682 582.217C353.413 581.573 353.826 580.701 353.832 579.791V564.574C353.825 563.664 353.412 562.792 352.681 562.149C351.951 561.505 350.962 561.141 349.929 561.135H332.663Z" fill="#D1D3D4"/>
<path id="Vector_72" d="M349.929 639.49H332.663C332.092 639.491 331.526 639.393 330.998 639.201C330.47 639.009 329.99 638.727 329.587 638.371C329.183 638.015 328.863 637.592 328.645 637.127C328.427 636.662 328.316 636.163 328.317 635.66V620.444C328.319 619.432 328.776 618.462 329.588 617.746C330.4 617.031 331.5 616.628 332.649 616.626H349.915C351.063 616.628 352.164 617.031 352.976 617.746C353.788 618.462 354.245 619.432 354.247 620.444V635.66C354.249 636.672 353.796 637.644 352.987 638.362C352.177 639.08 351.078 639.486 349.929 639.49V639.49ZM332.663 617.005C331.63 617.009 330.64 617.373 329.91 618.017C329.179 618.661 328.766 619.533 328.76 620.444V635.66C328.762 636.573 329.173 637.448 329.904 638.095C330.635 638.743 331.627 639.109 332.663 639.115H349.929C350.965 639.109 351.957 638.743 352.688 638.095C353.419 637.448 353.83 636.573 353.832 635.66V620.444C353.826 619.533 353.413 618.661 352.682 618.017C351.952 617.373 350.962 617.009 349.929 617.005H332.663Z" fill="#D1D3D4"/>
<path id="Vector_73" d="M349.929 695.375H332.663C331.515 695.373 330.414 694.97 329.602 694.255C328.79 693.539 328.333 692.569 328.331 691.557V676.341C328.333 675.329 328.79 674.359 329.602 673.644C330.414 672.928 331.515 672.525 332.663 672.524H349.929C351.078 672.525 352.178 672.928 352.99 673.644C353.802 674.359 354.259 675.329 354.261 676.341V691.557C354.259 692.569 353.802 693.539 352.99 694.255C352.178 694.97 351.078 695.373 349.929 695.375V695.375ZM332.663 672.864C331.627 672.87 330.635 673.237 329.904 673.884C329.173 674.531 328.762 675.406 328.76 676.319V691.536C328.762 692.449 329.173 693.324 329.904 693.971C330.635 694.618 331.627 694.984 332.663 694.99H349.929C350.965 694.984 351.957 694.618 352.688 693.971C353.419 693.324 353.83 692.449 353.832 691.536V676.319C353.83 675.406 353.419 674.531 352.688 673.884C351.957 673.237 350.965 672.87 349.929 672.864H332.663Z" fill="#D1D3D4"/>
<path id="Vector_74" d="M349.929 751.229H332.663C331.515 751.227 330.414 750.824 329.602 750.109C328.79 749.393 328.333 748.423 328.331 747.411V732.194C328.332 731.182 328.789 730.211 329.601 729.496C330.413 728.78 331.514 728.378 332.663 728.377H349.929C351.078 728.378 352.179 728.78 352.991 729.496C353.803 730.211 354.26 731.182 354.261 732.194V747.411C354.259 748.423 353.802 749.393 352.99 750.109C352.178 750.824 351.078 751.227 349.929 751.229V751.229ZM332.663 728.739C331.627 728.744 330.635 729.11 329.903 729.758C329.172 730.405 328.761 731.281 328.76 732.194V747.411C328.766 748.322 329.179 749.194 329.91 749.838C330.64 750.482 331.63 750.845 332.663 750.85H349.929C350.963 750.845 351.952 750.482 352.682 749.838C353.413 749.194 353.826 748.322 353.832 747.411V732.194C353.831 731.281 353.42 730.405 352.689 729.758C351.958 729.11 350.966 728.744 349.929 728.739H332.663Z" fill="#D1D3D4"/>
<path id="Vector_75" d="M349.929 807.094H332.663C331.514 807.093 330.413 806.69 329.601 805.975C328.789 805.259 328.332 804.289 328.331 803.277V788.064C328.333 787.052 328.79 786.082 329.602 785.367C330.414 784.651 331.515 784.249 332.663 784.247H349.929C351.078 784.249 352.178 784.651 352.99 785.367C353.802 786.082 354.259 787.052 354.261 788.064V803.277C354.26 804.289 353.803 805.259 352.991 805.975C352.179 806.69 351.078 807.093 349.929 807.094V807.094ZM332.663 784.613C331.63 784.618 330.64 784.982 329.91 785.625C329.179 786.269 328.766 787.141 328.76 788.051V803.264C328.767 804.175 329.18 805.046 329.911 805.689C330.641 806.333 331.63 806.697 332.663 806.703H349.929C350.962 806.697 351.951 806.333 352.681 805.689C353.412 805.046 353.825 804.175 353.832 803.264V788.051C353.826 787.141 353.413 786.269 352.682 785.625C351.952 784.982 350.963 784.618 349.929 784.613H332.663Z" fill="#D1D3D4"/>
<path id="Vector_76" d="M571.43 583.53C562.742 583.561 554.047 583.558 545.362 583.617L519.298 583.814C501.917 583.954 484.533 583.989 467.148 583.921L441.08 583.774L428.046 583.695L415.015 583.661L401.981 583.642C399.803 583.642 397.646 583.661 395.454 583.642C394.325 583.6 393.231 583.287 392.289 582.739C391.349 582.194 390.59 581.438 390.09 580.55C389.838 580.106 389.657 579.634 389.55 579.146C389.459 578.662 389.42 578.171 389.433 577.68V574.81L389.401 569.067V566.194C389.361 565.186 389.629 564.187 390.177 563.301C390.725 562.416 391.533 561.676 392.516 561.16C393.501 560.636 394.626 560.354 395.776 560.344C430.543 560.182 465.289 560.031 500.045 560.085C517.423 560.085 534.807 560.151 552.195 560.285L565.229 560.391C567.404 560.413 569.564 560.413 571.756 560.454C572.882 560.508 573.971 560.828 574.908 561.382C575.844 561.935 576.594 562.701 577.078 563.599C577.324 564.041 577.499 564.511 577.596 564.996C577.682 565.477 577.715 565.964 577.695 566.45V569.32L577.674 575.063V577.937C577.704 578.912 577.436 579.876 576.899 580.729C576.361 581.582 575.574 582.292 574.619 582.786C573.653 583.285 572.55 583.542 571.43 583.53ZM571.43 583.42C572.511 583.414 573.569 583.151 574.495 582.661C575.422 582.175 576.184 581.479 576.701 580.646C577.218 579.812 577.471 578.871 577.433 577.921V575.048L577.411 569.304V566.434C577.423 565.964 577.383 565.494 577.291 565.031C577.188 564.573 577.015 564.131 576.776 563.714C576.299 562.88 575.581 562.172 574.694 561.66C573.81 561.155 572.788 560.87 571.735 560.835C569.585 560.835 567.396 560.86 565.229 560.872L552.195 560.979C534.816 561.129 517.433 561.196 500.045 561.179C465.278 561.232 430.533 561.082 395.776 560.919C394.743 560.917 393.729 561.16 392.839 561.623C391.94 562.084 391.198 562.751 390.692 563.553C390.185 564.354 389.933 565.261 389.962 566.178V569.051L389.926 574.794V577.665C389.908 578.131 389.943 578.598 390.029 579.059C390.126 579.513 390.292 579.954 390.522 580.369C390.986 581.204 391.693 581.916 392.569 582.432C393.449 582.947 394.47 583.241 395.525 583.286C397.674 583.314 399.863 583.286 402.031 583.311L415.065 583.289L428.095 583.255L441.129 583.176L467.197 583.03C484.578 582.98 501.962 583.016 519.347 583.139L545.412 583.336C554.054 583.392 562.742 583.392 571.43 583.42Z" fill="#D1D3D4"/>
<path id="Vector_77" d="M571.43 639.546C562.742 639.574 554.047 639.574 545.362 639.631L519.298 639.828C501.917 639.971 484.533 640.008 467.148 639.937L441.08 639.79L428.046 639.712L415.015 639.678L401.981 639.656C399.803 639.656 397.646 639.678 395.454 639.656C394.326 639.612 393.232 639.299 392.289 638.752C391.349 638.207 390.59 637.452 390.09 636.564C389.838 636.119 389.657 635.647 389.55 635.16C389.459 634.675 389.42 634.184 389.433 633.694V630.82L389.401 625.077V622.207C389.361 621.199 389.629 620.2 390.177 619.314C390.725 618.429 391.533 617.689 392.516 617.173C393.5 616.648 394.626 616.366 395.776 616.357C430.543 616.192 465.289 616.045 500.045 616.098C517.423 616.098 534.807 616.165 552.195 616.298L565.229 616.404C567.404 616.426 569.564 616.423 571.756 616.467C572.886 616.521 573.977 616.846 574.914 617.405C575.845 617.961 576.591 618.725 577.078 619.618C577.324 620.059 577.498 620.529 577.596 621.013C577.682 621.494 577.715 621.982 577.695 622.47V625.34L577.674 631.083V633.956C577.704 634.931 577.436 635.896 576.899 636.749C576.361 637.601 575.574 638.312 574.619 638.805C573.652 639.302 572.55 639.558 571.43 639.546ZM571.43 639.437C572.511 639.43 573.569 639.168 574.495 638.677C575.422 638.192 576.184 637.496 576.701 636.662C577.218 635.828 577.47 634.887 577.433 633.937V631.064L577.411 625.321V622.451C577.423 621.981 577.383 621.51 577.291 621.047C577.189 620.59 577.015 620.147 576.776 619.731C576.3 618.896 575.582 618.187 574.694 617.677C573.811 617.17 572.788 616.885 571.735 616.851C569.585 616.851 567.396 616.876 565.229 616.889L552.195 616.992C534.816 617.142 517.433 617.21 500.045 617.195C465.278 617.248 430.533 617.098 395.776 616.933C394.743 616.933 393.729 617.177 392.839 617.639C391.949 618.103 391.215 618.767 390.71 619.562C390.207 620.367 389.954 621.275 389.976 622.195V625.065L389.941 630.808V633.681C389.923 634.148 389.957 634.615 390.044 635.075C390.14 635.529 390.305 635.969 390.537 636.382C391 637.218 391.706 637.93 392.584 638.446C393.463 638.961 394.484 639.257 395.539 639.302C397.689 639.33 399.878 639.302 402.045 639.324L415.079 639.305L428.11 639.271L441.144 639.193L467.211 639.046C484.592 638.992 501.976 639.027 519.362 639.152L545.426 639.349C554.054 639.412 562.742 639.412 571.43 639.437Z" fill="#D1D3D4"/>
<path id="Vector_78" d="M571.43 695.413C562.742 695.444 554.047 695.441 545.362 695.5L519.298 695.697C501.917 695.837 484.533 695.872 467.148 695.803L441.08 695.659L428.046 695.581L415.015 695.547L401.981 695.525C399.803 695.525 397.646 695.547 395.454 695.525C394.326 695.481 393.232 695.169 392.289 694.622C391.348 694.071 390.589 693.311 390.09 692.417C389.837 691.974 389.656 691.501 389.55 691.014C389.459 690.53 389.42 690.04 389.433 689.55V686.677L389.401 680.934V678.064C389.363 677.056 389.631 676.057 390.179 675.171C390.727 674.285 391.534 673.545 392.516 673.027C393.501 672.504 394.627 672.223 395.776 672.214C430.543 672.049 465.289 671.902 500.045 671.955C517.423 671.955 534.807 672.022 552.195 672.155L565.229 672.261C567.403 672.283 569.564 672.28 571.756 672.324C572.886 672.378 573.977 672.703 574.914 673.262C575.843 673.818 576.59 674.58 577.078 675.472C577.324 675.914 577.498 676.385 577.596 676.87C577.682 677.35 577.715 677.837 577.695 678.323V681.197L577.674 686.94V689.81C577.703 690.785 577.435 691.75 576.898 692.603C576.361 693.457 575.574 694.168 574.619 694.662C573.653 695.162 572.551 695.422 571.43 695.413ZM571.43 695.306C572.51 695.298 573.569 695.036 574.495 694.547C575.423 694.061 576.185 693.365 576.702 692.53C577.219 691.696 577.471 690.754 577.433 689.804V686.934L577.411 681.19V678.317C577.423 677.847 577.383 677.377 577.291 676.913C577.187 676.456 577.014 676.013 576.776 675.597C576.3 674.763 575.582 674.056 574.694 673.546C573.812 673.038 572.788 672.753 571.735 672.721C569.585 672.721 567.396 672.746 565.229 672.755L552.174 672.865C534.795 673.015 517.412 673.081 500.023 673.065C465.257 673.118 430.511 672.971 395.755 672.805C394.722 672.804 393.708 673.047 392.818 673.509C391.919 673.972 391.177 674.639 390.671 675.441C390.165 676.243 389.913 677.15 389.941 678.067V680.937L389.905 686.68V689.554C389.887 690.02 389.922 690.487 390.008 690.948C390.104 691.401 390.27 691.841 390.501 692.255C390.964 693.09 391.671 693.802 392.548 694.318C393.427 694.834 394.449 695.129 395.503 695.172C397.653 695.203 399.842 695.172 402.01 695.197L415.044 695.178L428.074 695.141L441.108 695.062L467.176 694.919C484.557 694.864 501.94 694.9 519.326 695.025L545.39 695.222C554.054 695.278 562.742 695.275 571.43 695.306V695.306Z" fill="#D1D3D4"/>
<path id="Vector_79" d="M571.43 751.281C562.742 751.312 554.047 751.309 545.362 751.368L519.298 751.565C501.917 751.705 484.533 751.74 467.148 751.671L441.08 751.524L428.046 751.446L415.015 751.412L401.981 751.393C399.803 751.393 397.646 751.412 395.454 751.393C394.325 751.351 393.231 751.038 392.289 750.49C391.349 749.944 390.59 749.189 390.09 748.301C389.838 747.857 389.657 747.385 389.55 746.898C389.459 746.413 389.42 745.922 389.433 745.431V742.561L389.401 736.819V733.946C389.361 732.938 389.629 731.939 390.177 731.053C390.725 730.168 391.533 729.428 392.516 728.912C393.501 728.388 394.626 728.106 395.776 728.096C430.543 727.934 465.289 727.784 500.045 727.837C517.423 727.837 534.807 727.903 552.195 728.037L565.229 728.143C567.404 728.165 569.564 728.165 571.756 728.206C572.882 728.26 573.971 728.58 574.908 729.134C575.844 729.687 576.594 730.453 577.078 731.351C577.324 731.793 577.499 732.263 577.596 732.748C577.682 733.229 577.715 733.716 577.695 734.202V737.075L577.674 742.815V745.688C577.704 746.663 577.436 747.627 576.899 748.48C576.361 749.333 575.574 750.043 574.619 750.537C573.653 751.036 572.55 751.293 571.43 751.281V751.281ZM571.43 751.171C572.511 751.164 573.569 750.902 574.495 750.412C575.422 749.926 576.184 749.23 576.701 748.397C577.218 747.563 577.471 746.622 577.433 745.672V742.799L577.411 737.059V734.186C577.423 733.716 577.383 733.246 577.291 732.783C577.187 732.325 577.014 731.883 576.776 731.466C576.299 730.632 575.581 729.924 574.694 729.412C573.81 728.907 572.788 728.622 571.735 728.587C569.585 728.587 567.396 728.612 565.229 728.625L552.195 728.731C534.816 728.881 517.433 728.948 500.045 728.931C465.278 728.984 430.533 728.834 395.776 728.672C394.743 728.669 393.729 728.912 392.839 729.375C391.94 729.837 391.198 730.503 390.692 731.305C390.185 732.106 389.933 733.013 389.962 733.93V736.803L389.926 742.546V745.416C389.908 745.882 389.943 746.349 390.029 746.81C390.126 747.264 390.292 747.705 390.522 748.12C390.986 748.955 391.693 749.667 392.569 750.183C393.449 750.697 394.47 750.992 395.525 751.037C397.674 751.065 399.863 751.052 402.031 751.062L415.065 751.04L428.095 751.005L441.129 750.927L467.197 750.78C484.578 750.73 501.962 750.767 519.347 750.89L545.412 751.087C554.054 751.143 562.742 751.143 571.43 751.171V751.171Z" fill="#D1D3D4"/>
<path id="Vector_80" d="M571.43 807.146C562.742 807.177 554.047 807.177 545.362 807.234L519.298 807.431C501.917 807.574 484.533 807.611 467.148 807.54L441.08 807.393L428.046 807.315L415.015 807.281L401.981 807.259C399.803 807.259 397.646 807.281 395.454 807.259C394.326 807.215 393.232 806.902 392.289 806.355C391.349 805.81 390.59 805.054 390.09 804.166C389.838 803.722 389.657 803.249 389.55 802.762C389.459 802.277 389.42 801.786 389.433 801.295V798.421L389.401 792.677V789.806C389.363 788.798 389.631 787.798 390.179 786.912C390.727 786.026 391.534 785.286 392.516 784.768C393.501 784.245 394.627 783.964 395.776 783.955C430.543 783.789 465.289 783.642 500.045 783.696C517.423 783.696 534.807 783.762 552.195 783.896L565.229 784.002C567.403 784.024 569.564 784.021 571.756 784.064C572.886 784.119 573.977 784.443 574.914 785.003C575.843 785.559 576.59 786.322 577.078 787.214C577.323 787.656 577.497 788.127 577.596 788.611C577.682 789.093 577.715 789.581 577.695 790.069V792.939L577.674 798.684V801.558C577.703 802.533 577.436 803.498 576.898 804.351C576.361 805.204 575.574 805.914 574.619 806.408C573.652 806.905 572.55 807.16 571.43 807.146ZM571.43 807.04C572.511 807.033 573.569 806.771 574.495 806.28C575.422 805.795 576.184 805.098 576.701 804.264C577.218 803.43 577.47 802.489 577.433 801.539V798.665L577.411 792.921V790.05C577.423 789.578 577.383 789.107 577.291 788.643C577.188 788.186 577.015 787.744 576.776 787.329C576.301 786.494 575.583 785.785 574.694 785.275C573.811 784.768 572.788 784.482 571.735 784.449C569.585 784.449 567.396 784.474 565.229 784.484L552.195 784.59C534.816 784.74 517.433 784.807 500.045 784.79C465.278 784.846 430.533 784.696 395.776 784.53C394.744 784.529 393.729 784.772 392.839 785.234C391.94 785.697 391.199 786.365 390.693 787.167C390.186 787.969 389.934 788.876 389.962 789.793V792.664L389.926 798.409V801.283C389.908 801.749 389.943 802.217 390.029 802.677C390.125 803.131 390.291 803.571 390.522 803.984C390.985 804.82 391.692 805.532 392.569 806.048C393.448 806.564 394.47 806.859 395.525 806.902C397.674 806.933 399.863 806.918 402.031 806.927L415.065 806.908L428.095 806.874L441.129 806.796L467.197 806.649C484.578 806.595 501.962 806.63 519.347 806.755L545.412 806.952C554.054 807.012 562.742 807.008 571.43 807.04Z" fill="#D1D3D4"/>
<path id="Vector_81" d="M338.016 582.939C337.595 582.937 337.186 582.808 336.86 582.573L328.888 576.795C328.694 576.664 328.531 576.5 328.411 576.313C328.29 576.125 328.213 575.918 328.185 575.704C328.157 575.489 328.178 575.272 328.247 575.066C328.316 574.859 328.432 574.666 328.587 574.499C328.742 574.333 328.934 574.195 329.151 574.095C329.368 573.995 329.605 573.935 329.849 573.917C330.093 573.9 330.339 573.926 330.571 573.994C330.803 574.062 331.018 574.171 331.201 574.313L337.779 579.081L363.024 552.428C363.177 552.266 363.365 552.133 363.577 552.035C363.789 551.937 364.02 551.877 364.258 551.858C364.497 551.839 364.737 551.862 364.965 551.925C365.193 551.988 365.405 552.09 365.589 552.225C365.772 552.36 365.924 552.525 366.035 552.712C366.146 552.899 366.214 553.103 366.235 553.313C366.257 553.523 366.231 553.734 366.159 553.936C366.088 554.137 365.973 554.323 365.819 554.485L339.418 582.36C339.247 582.542 339.033 582.688 338.79 582.788C338.548 582.888 338.284 582.939 338.016 582.939V582.939Z" fill="#DC3742"/>
<path id="Vector_82" d="M338.016 638.88C337.595 638.88 337.187 638.752 336.86 638.517L328.888 632.737C328.515 632.466 328.279 632.077 328.232 631.653C328.185 631.229 328.331 630.807 328.638 630.478C328.945 630.149 329.387 629.941 329.868 629.9C330.348 629.858 330.828 629.987 331.201 630.257L337.779 635.025L363.024 608.372C363.177 608.211 363.365 608.077 363.577 607.979C363.789 607.881 364.02 607.821 364.258 607.803C364.497 607.784 364.737 607.806 364.965 607.869C365.193 607.932 365.405 608.034 365.589 608.169C365.772 608.304 365.924 608.47 366.035 608.657C366.146 608.843 366.214 609.047 366.235 609.257C366.257 609.467 366.231 609.679 366.159 609.88C366.088 610.081 365.973 610.268 365.819 610.43L339.418 638.305C339.246 638.485 339.032 638.63 338.79 638.73C338.547 638.829 338.283 638.881 338.016 638.88V638.88Z" fill="#DC3742"/>
<path id="Vector_83" d="M338.016 694.75C337.595 694.748 337.186 694.619 336.86 694.384L328.888 688.606C328.703 688.472 328.55 688.308 328.438 688.122C328.325 687.936 328.255 687.732 328.232 687.522C328.209 687.313 328.233 687.101 328.302 686.899C328.372 686.698 328.486 686.51 328.638 686.347C328.79 686.184 328.977 686.05 329.188 685.95C329.399 685.851 329.63 685.79 329.868 685.769C330.106 685.749 330.346 685.77 330.575 685.831C330.804 685.893 331.016 685.993 331.201 686.127L337.779 690.892L363.024 664.239C363.254 663.995 363.562 663.817 363.907 663.727C364.253 663.638 364.621 663.64 364.965 663.735C365.308 663.83 365.613 664.012 365.839 664.259C366.065 664.507 366.202 664.807 366.234 665.123C366.258 665.333 366.233 665.545 366.161 665.747C366.09 665.948 365.974 666.135 365.819 666.296L339.418 694.174C339.246 694.355 339.032 694.5 338.789 694.599C338.547 694.699 338.283 694.75 338.016 694.75Z" fill="#DC3742"/>
<path id="Vector_84" d="M338.016 750.615C337.595 750.613 337.186 750.484 336.86 750.249L328.888 744.472C328.694 744.341 328.531 744.177 328.411 743.989C328.29 743.802 328.213 743.594 328.185 743.38C328.157 743.166 328.178 742.949 328.247 742.742C328.316 742.535 328.432 742.343 328.587 742.176C328.742 742.009 328.934 741.872 329.151 741.772C329.368 741.672 329.605 741.612 329.849 741.594C330.093 741.577 330.339 741.603 330.571 741.671C330.803 741.739 331.018 741.847 331.201 741.99L337.779 746.757L363.024 720.107C363.177 719.946 363.365 719.812 363.577 719.714C363.789 719.617 364.02 719.557 364.258 719.538C364.497 719.519 364.737 719.542 364.965 719.604C365.193 719.667 365.405 719.769 365.589 719.904C365.772 720.039 365.924 720.205 366.035 720.392C366.146 720.578 366.214 720.782 366.235 720.992C366.257 721.202 366.231 721.414 366.159 721.615C366.088 721.816 365.973 722.003 365.819 722.164L339.418 750.036C339.246 750.217 339.032 750.363 338.79 750.463C338.548 750.562 338.284 750.614 338.016 750.615V750.615Z" fill="#DC3742"/>
<path id="Vector_85" d="M338.016 806.482C337.594 806.482 337.185 806.353 336.86 806.117L328.888 800.339C328.703 800.205 328.55 800.041 328.438 799.855C328.325 799.669 328.255 799.465 328.232 799.255C328.209 799.045 328.233 798.834 328.302 798.632C328.372 798.43 328.486 798.243 328.638 798.08C328.79 797.917 328.977 797.782 329.188 797.683C329.399 797.584 329.63 797.523 329.868 797.502C330.106 797.482 330.346 797.503 330.575 797.564C330.804 797.625 331.016 797.726 331.201 797.86L337.779 802.628L363.024 775.974C363.177 775.812 363.364 775.678 363.576 775.58C363.788 775.482 364.019 775.422 364.258 775.402C364.496 775.383 364.736 775.406 364.964 775.468C365.193 775.531 365.405 775.633 365.589 775.768C365.959 776.041 366.191 776.433 366.234 776.858C366.278 777.282 366.128 777.704 365.819 778.031L339.418 805.907C339.246 806.088 339.032 806.233 338.789 806.332C338.547 806.432 338.283 806.483 338.016 806.482V806.482Z" fill="#DC3742"/>
<path id="Vector_86" d="M516.229 429.139H388.811C387.048 429.139 385.618 430.398 385.618 431.952V442.947C385.618 444.501 387.048 445.761 388.811 445.761H516.229C517.992 445.761 519.422 444.501 519.422 442.947V431.952C519.422 430.398 517.992 429.139 516.229 429.139Z" fill="#231F20"/>
<path id="Vector_87" d="M395.368 476.773L394.612 486.596L403.35 485.798L404.102 476.438L408.622 476.773L406.827 499.347L402.307 499.016L403.212 487.865L394.474 488.662L393.569 499.81L389.05 499.479L390.859 476.448L395.368 476.773Z" fill="#6D6E71"/>
<path id="Vector_88" d="M445.059 479.693C447.27 481.859 448.375 484.579 448.372 487.856C448.372 491.307 447.19 494.161 444.824 496.418C443.744 497.5 442.41 498.362 440.915 498.946C439.42 499.53 437.799 499.821 436.164 499.801C434.538 499.816 432.926 499.535 431.429 498.975C429.933 498.416 428.583 497.59 427.465 496.549C425.026 494.382 423.808 491.568 423.811 488.109C423.811 484.701 424.966 481.902 427.277 479.712C429.588 477.521 432.544 476.426 436.146 476.426C439.879 476.435 442.849 477.524 445.059 479.693ZM430.867 481.419C429.186 483.319 428.345 486.261 428.345 490.244C428.345 492.537 429.136 494.351 430.718 495.687C432.301 497.023 434.075 497.686 436.04 497.678C438.247 497.678 440.105 496.583 441.614 494.392C443.123 492.202 443.875 489.58 443.87 486.527C443.87 483.786 443.217 481.773 441.912 480.487C440.606 479.201 438.849 478.56 436.64 478.565C434.471 478.565 432.539 479.516 430.846 481.419H430.867Z" fill="#6D6E71"/>
<path id="Vector_89" d="M487.128 499.801L485.709 481.612L477.728 499.006L473.21 499.338L469.663 483.869L465.371 499.816L462.888 499.088L468.918 476.784L473.433 476.449L477.335 494.241L485.319 476.784L489.838 476.449L491.644 499.485L487.128 499.801Z" fill="#6D6E71"/>
<path id="Vector_90" d="M521.745 477.636L521.518 479.624L512.404 478.761L511.801 486.461L520.766 487.258L520.539 489.25L511.578 488.518L510.9 497.347L521.068 496.409L521.291 498.4L506.153 499.791L508.037 476.429L521.745 477.636Z" fill="#6D6E71"/>
<path id="Vector_91" d="M694.806 800.914C693.04 797.456 691.254 794.007 689.449 790.566C686.477 784.938 683.035 779.183 680.524 773.308C680.226 772.605 679.938 771.904 679.669 771.198C677.387 765.258 678.941 759.483 677.185 753.443C675.663 748.247 672.35 744.752 672.424 739.171C672.612 725.34 673.865 711.525 673.762 697.709C673.673 686.392 673.51 675.046 671.988 663.797C671.584 660.808 671.044 657.729 669.21 655.193C666.94 652.051 663.03 650.191 659.277 648.456C648.864 643.638 638.346 638.783 626.993 636.116C621.565 634.841 615.974 634.075 610.692 632.396C601.007 629.316 591.315 623.126 581.438 625.687C577.89 626.624 574.814 628.61 571.838 630.57L548.271 646.071C547.105 646.824 545.992 647.641 544.94 648.515C540.005 653.915 544.972 657.748 544.972 657.748C550.8 661.793 555.473 660.715 556.005 660.561C557.91 659.991 559.777 659.325 561.596 658.567L579.135 651.604C582.159 655.67 586.377 658.939 591.339 661.062C593.01 661.771 594.837 662.406 595.951 663.716C596.696 664.591 597.016 665.686 597.236 666.767C598.435 673.133 595.217 679.989 589.268 683.75C583.318 687.511 574.917 687.998 568.457 684.953C563.71 682.718 560.081 678.813 555.086 677.044C553.578 676.512 551.918 676.156 550.733 675.168C548.086 672.979 549.144 669.228 548.604 666.048C547.874 662.769 543.804 659.77 543.804 659.77C542.49 658.853 540.946 658.223 539.301 657.933C537.656 657.643 535.957 657.702 534.343 658.104C533.647 658.304 532.965 658.542 532.303 658.817C531.735 659.13 518.251 666.899 520.784 684.344C520.784 684.344 520.653 695.38 534.723 706.622C535.904 707.416 537.039 708.264 538.128 709.152C538.15 709.164 538.17 709.18 538.185 709.198C543.297 713.37 547.318 718.473 549.967 724.152C552.262 729.107 553.479 734.425 555.022 739.618C564.75 761.59 594.756 770.773 594.777 770.773C606.619 774.38 618.191 780.639 626.589 788.906C633.478 795.684 636.661 804.472 640.701 812.707C641.013 813.348 642.205 815.88 643.845 819.347L648.935 828.779L699.819 808.549L694.806 800.914Z" fill="#F69D98"/>
<path id="Vector_92" d="M639.151 664.423C638.96 661.099 638.636 657.787 638.179 654.487C638.108 653.981 638.03 653.471 637.941 652.962C636.877 647.856 630.945 644.961 630.945 644.961L608.439 631.646C605.14 630.458 601.837 629.019 598.523 627.791C599.155 628.854 601.17 629.832 602.036 630.395C606.056 633.017 609.973 635.752 613.785 638.599C618.021 641.775 622.113 645.093 626.06 648.553C627.426 649.748 628.781 650.97 629.789 652.415C630.832 653.906 631.467 655.582 632.091 657.242L634.72 664.207C635.007 664.973 635.32 665.771 635.976 666.33C636.632 666.89 637.75 667.124 638.459 666.624C639.169 666.124 639.197 665.199 639.151 664.423Z" fill="#F38E8B"/>
<path id="Vector_93" d="M653.32 660.046C653.856 657.723 653.537 655.397 653.217 653.124C652.948 651.198 652.664 649.235 651.763 647.531C649.801 643.839 645.335 642.035 641.085 640.622C640.187 640.309 639.385 639.859 638.505 639.531C637.979 639.305 637.415 639.157 636.834 639.09C636.718 639.067 636.596 639.069 636.481 639.097C636.366 639.124 636.259 639.175 636.171 639.246C635.674 639.824 637.324 640.397 637.736 640.612L639.265 641.41C642.333 642.857 645.508 644.389 647.403 647.009C650.11 650.761 649.673 655.982 651.859 660.04C652.082 660.459 652.636 660.909 653.058 660.562C653.203 660.418 653.295 660.238 653.32 660.046V660.046Z" fill="#F38E8B"/>
<path id="Vector_94" d="M666.053 656.038C665.888 655.391 665.641 654.761 665.318 654.162C664.774 653.281 664.082 652.477 663.268 651.777C662.35 650.903 661.375 650.077 660.348 649.304C658.807 648.291 657.141 647.436 655.382 646.752C654.796 646.971 655.736 647.478 656.137 647.706C657.323 648.409 658.387 649.259 659.298 650.229C660.871 651.852 662.215 653.636 663.3 655.544C663.931 656.616 664.502 657.714 665.035 658.83C665.23 659.243 666.06 660.706 666.674 660.177C667.472 659.502 666.255 656.826 666.053 656.038Z" fill="#F38E8B"/>
<path id="Vector_95" d="M597.058 699.152C598.885 697.689 600.067 695.694 600.868 693.637C601.601 691.591 602.164 689.501 602.554 687.384C603.067 684.958 603.582 682.532 604.1 680.105C604.679 677.376 605.246 674.5 604.214 671.874C603.529 670.129 602.185 668.653 600.844 667.234C599.719 666.046 598.545 664.845 597.026 664.061L596.118 663.948C596.699 664.81 597.072 665.767 597.214 666.762C598.413 673.127 595.196 679.984 589.246 683.745C583.297 687.506 574.896 687.993 568.436 684.948C563.689 682.713 560.06 678.808 555.065 677.038C553.575 676.513 551.943 676.157 550.758 675.209C550.66 675.46 550.583 675.716 550.527 675.975C550.406 676.421 550.442 676.889 550.63 677.317C550.884 677.713 551.238 678.053 551.666 678.308C556.318 681.574 560.542 685.287 564.26 689.378C565.576 690.829 566.857 692.349 568.574 693.421C571.267 695.1 574.683 695.488 577.855 696.272C580.381 696.899 582.809 697.801 585.081 698.958C586.745 699.802 588.374 700.802 590.265 701.103C592.695 701.49 595.235 700.615 597.058 699.152Z" fill="#F38E8B"/>
<path id="Vector_96" d="M689.024 740.958C690.525 741.746 692.075 741.171 692.515 740.977C705.641 734.227 705.73 724.644 704.839 719.992C704.57 717.948 701.504 716.203 701.504 716.203L575.772 664.839L561.018 658.811C559.391 659.482 557.722 660.071 556.019 660.574C555.487 660.715 550.815 661.794 544.986 657.761C544.986 657.761 541.793 655.278 543.088 651.508L522.309 643.02L509.406 642.829L516.995 650.904L532.214 658.874L532.268 658.842C532.93 658.567 533.611 658.329 534.307 658.13C535.922 657.728 537.621 657.669 539.266 657.959C540.911 658.248 542.454 658.878 543.769 659.796C543.769 659.796 547.838 662.794 548.569 666.074C548.649 666.553 548.701 667.035 548.725 667.518L584.102 686.027L672.566 732.348L689.01 740.958H689.024Z" fill="#231F20"/>
<path id="Vector_97" d="M700.569 732.233C703.934 727.222 704.878 722.23 702.678 721.082C700.478 719.934 695.966 723.066 692.601 728.077C689.236 733.087 688.292 738.08 690.492 739.228C692.692 740.375 697.204 737.244 700.569 732.233Z" fill="#808285"/>
<path id="Vector_98" d="M700.569 732.233C703.934 727.222 704.878 722.23 702.678 721.082C700.478 719.934 695.966 723.066 692.601 728.077C689.236 733.087 688.292 738.08 690.492 739.228C692.692 740.375 697.204 737.244 700.569 732.233Z" fill="#808285"/>
<path id="Vector_99" d="M699.401 731.601C696.641 735.713 693.132 738.386 691.567 737.567C690.003 736.748 690.968 732.755 693.728 728.643C696.488 724.531 699.997 721.861 701.565 722.677C703.133 723.493 702.175 727.489 699.401 731.601Z" fill="#58595B"/>
<path id="Vector_100" d="M522.309 642.998L516.995 650.883L513.344 647L516.14 642.907L522.309 642.998Z" fill="#939598"/>
<path id="Vector_101" d="M516.14 642.907L513.344 647L511.996 645.561L513.834 642.873L516.14 642.907Z" fill="#58595B"/>
<path id="Vector_102" d="M535.499 677.301C537.723 673.132 539.948 668.964 542.176 664.795C542.598 664.004 543.027 663.176 542.992 662.294C542.949 661.197 542.169 660.221 541.275 659.455C538.352 656.954 534.857 657.373 531.771 658.905C529.557 660.006 527.702 661.616 526.127 663.354C525.347 664.221 524.626 665.127 523.966 666.068C523.005 667.445 522.223 668.913 521.635 670.445C521.341 671.195 521.082 671.958 520.855 672.724C520.677 673.321 520.323 674.175 520.968 674.687C521.16 674.834 521.36 674.972 521.568 675.1C525.001 677.214 529.057 678.404 533.243 678.523C533.741 678.577 534.245 678.494 534.687 678.286C535.053 678.028 535.334 677.688 535.499 677.301Z" fill="#F9B9B7"/>
<path id="Vector_103" d="M560.734 645.321C560.777 645.011 560.739 644.697 560.624 644.401C560.348 643.356 559.829 642.372 559.098 641.513C556.697 638.886 554.575 641.037 552.287 642.594C549.76 644.329 547.354 646.196 545.082 648.185C543.872 649.282 540.441 652.752 542.414 655.219C542.414 655.219 543.372 656.235 544.188 655.954C550.173 654.031 555.068 650.195 559.797 646.44C560.239 646.167 560.568 645.774 560.734 645.321V645.321Z" fill="#F9B9B7"/>
<path id="Vector_104" d="M694.806 800.916C693.04 797.458 691.254 794.009 689.449 790.568C687.129 786.169 684.532 781.708 682.308 777.169C681.999 776.543 681.701 775.918 681.407 775.293C681.113 774.668 680.811 773.986 680.531 773.329C680.531 773.311 680.531 773.295 680.513 773.279L680.407 773.017C680.155 772.42 679.906 771.819 679.676 771.219C677.395 765.279 678.948 759.505 677.192 753.465C676.149 749.91 674.269 747.149 673.212 743.973C672.761 744.095 672.385 744.511 672.148 745.327C670.941 749.194 674.528 753.046 674.333 757.054C674.195 759.958 672.073 762.65 672.357 765.545C672.357 765.545 673.006 776.972 666.787 779.835C664.087 781.086 661.359 782.305 658.628 783.518C656.254 784.575 653.803 785.647 651.245 786.229L651.107 786.263C645.672 787.66 639.96 786.857 634.997 784.575C631.41 782.924 628.785 780.16 625.642 777.988C622.094 775.54 618.035 773.651 614.147 771.672C605.09 767.064 594.341 762.293 583.872 766.301C587.365 768.051 591.01 769.555 594.773 770.797C606.616 774.405 618.188 780.664 626.585 788.93C633.475 795.708 636.657 804.496 640.698 812.731C641.01 813.371 642.202 815.904 643.841 819.371L648.932 828.803L699.819 808.551L694.806 800.916Z" fill="#F38E8B"/>
<path id="Vector_105" d="M662.318 885.751H761.013L709.609 801.808C709.412 801.485 709.08 801.241 708.683 801.129C708.286 801.017 707.855 801.044 707.481 801.205L639.744 830.25C639.382 830.406 639.099 830.675 638.951 831.006C638.804 831.336 638.802 831.703 638.945 832.035L662.318 885.751Z" fill="#231F20"/>
<path id="Vector_106" d="M685.611 779.824L647.754 795.933C647.754 795.933 646.165 796.327 646.402 797.518L654.853 820.771C654.853 820.771 654.998 823.625 652.37 820.293L641.496 801.432C641.496 801.432 640.655 799.803 639.414 800.116L633.145 802.783C632.756 802.987 632.464 803.309 632.323 803.688C632.181 804.067 632.2 804.478 632.375 804.846L643.195 828.771L704.399 802.511L691.873 780.449C691.873 780.449 690.741 778.008 685.611 779.824Z" fill="#F1F2F2"/>
<path id="Vector_107" d="M654.115 818.743L654.853 820.771C654.853 820.771 654.998 823.625 652.37 820.293L652.015 819.668L641.23 824.416L643.199 828.768L704.403 802.51L701.71 797.768L654.115 818.743Z" fill="#D1D3D4"/>
<path id="Vector_108" d="M535.5 677.298C535.337 677.69 535.056 678.036 534.687 678.298C534.245 678.506 533.741 678.589 533.243 678.536C529.057 678.416 525.001 677.227 521.568 675.112C521.36 674.984 521.16 674.846 520.968 674.7C520.916 674.656 520.869 674.608 520.826 674.556C520.774 674.942 520.812 675.334 520.939 675.706C521.065 676.079 521.277 676.425 521.561 676.723C522.299 677.442 523.359 677.82 524.399 678.173C527.29 679.171 530.263 680.14 533.364 680.208C533.979 680.255 534.598 680.168 535.166 679.955C536.323 679.449 536.731 678.204 537.021 677.095C537.22 676.344 537.376 675.431 536.812 674.872C536.362 675.678 535.932 676.491 535.5 677.298Z" fill="#F0918F"/>
<path id="Vector_109" d="M562.355 643.667C562.146 642.855 561.749 642.091 561.188 641.422C560.855 640.997 559.648 639.756 558.616 639.274L557.115 640.262C557.123 640.28 557.133 640.298 557.144 640.315C557.779 640.418 558.428 640.778 559.098 641.513C559.829 642.372 560.348 643.356 560.624 644.401C560.739 644.698 560.777 645.013 560.734 645.324C560.573 645.773 560.252 646.164 559.819 646.44L559.187 646.94C559.271 646.98 559.363 647.007 559.457 647.021C559.924 647.081 560.401 647.021 560.831 646.85C561.262 646.679 561.628 646.403 561.887 646.055C562.393 645.344 562.561 644.486 562.355 643.667V643.667Z" fill="#F0918F"/>
<path id="Vector_110" d="M370.179 676.484C368.001 674.921 364.184 674.474 361.466 674.471C347.354 676.084 340.095 690.037 330.861 698.963C326.199 703.471 319.65 714.908 319.65 714.908C318.064 716.737 316.163 718.613 313.906 719.597C310.997 720.848 306.811 719.216 304.509 717.343C302.557 715.701 300.965 713.756 299.812 711.606C293.256 699.842 291.599 685.97 291.319 672.505C291.038 659.039 292.028 645.461 290.19 632.108C287.154 633.437 284.039 634.831 281.211 636.573C279.853 637.561 278.649 638.704 277.632 639.971C274.294 643.387 272.031 647.515 271.069 651.942C270.235 655.875 270.43 660.04 268.614 663.707C267.422 666.108 265.421 668.134 264.002 670.432C262.487 672.871 261.614 675.58 261.447 678.357C261.27 681.387 261.933 684.469 261.178 687.424C260.404 690.459 258.184 693.145 257.786 696.237C257.378 699.429 258.968 702.546 259.28 705.744C259.635 709.421 258.304 713.054 258.045 716.737C257.839 719.669 258.318 722.599 258.464 725.534C258.641 729.105 258.322 732.678 258.006 736.242C257.651 740.235 257.297 744.246 256.215 748.138C255.505 750.721 254.473 753.244 254.114 755.882C253.724 758.768 254.146 761.669 254.739 764.539C251.5 772.796 247.587 780.956 243.989 789.194L233.137 807.783L280.488 828.771L290.606 810.422C292.363 807.766 294.31 805.211 296.434 802.772C303.217 795.109 312.225 789.219 319.657 782.041C332.744 769.404 340.464 753.169 344.086 736.255H344.161C344.161 736.133 344.161 736.014 344.161 735.895C344.634 733.692 345.03 731.479 345.349 729.255C345.731 728.087 346.186 726.939 346.712 725.816C349.628 721.351 352.618 716.927 355.62 712.507C358.458 708.314 361.296 705.522 365.096 702.005C368.565 698.791 372.365 695.049 374.461 690.944C377.044 685.898 374.962 679.936 370.179 676.484Z" fill="#F69D98"/>
<path id="Vector_111" d="M373.055 681.081C371.09 677.642 367.62 675.663 363.7 675.419C362.729 675.335 361.75 675.365 360.788 675.506C359.795 675.678 359.096 676.419 358.344 677.07C355.229 679.718 352.075 682.413 349.773 685.789C349.523 686.06 349.377 686.394 349.358 686.743C349.339 687.092 349.447 687.437 349.667 687.728C351.93 691.901 355.74 695.212 360.196 696.879C360.93 697.154 361.717 697.388 362.491 697.251C363.188 697.077 363.826 696.755 364.35 696.313C366.17 694.978 367.822 693.473 369.277 691.826C370.185 690.807 370.987 689.697 371.796 688.597C372.2 688.047 372.622 687.509 373.027 686.962C373.555 686.249 374.056 685.78 374.038 684.826C373.985 683.998 373.828 683.176 373.57 682.378C373.431 681.936 373.259 681.503 373.055 681.081Z" fill="#FBCBC3"/>
<path id="Vector_112" d="M350.103 683.873C350.372 683.56 350.744 683.328 351.167 683.207C351.366 683.178 351.57 683.189 351.763 683.238C351.046 684.049 350.383 684.897 349.78 685.777C349.53 686.048 349.385 686.382 349.365 686.731C349.346 687.079 349.454 687.424 349.674 687.715C351.937 691.889 355.747 695.2 360.203 696.866C360.938 697.141 361.725 697.376 362.499 697.238C363.196 697.064 363.834 696.742 364.358 696.3C365.279 695.618 366.157 694.892 366.987 694.124C367.014 694.372 366.981 694.623 366.891 694.859C366.259 696.529 364.361 697.839 362.726 698.358C361.891 698.618 361.005 698.725 360.122 698.671C359.239 698.617 358.378 698.404 357.592 698.045C356.418 697.507 355.417 696.666 354.431 695.835C352.175 693.927 349.862 691.955 348.485 689.341C348.168 688.792 347.978 688.192 347.925 687.578C347.868 686.105 349.028 684.892 350.103 683.873Z" fill="#F0918F"/>
<path id="Vector_113" d="M331.052 698.778C330.992 698.838 330.928 698.903 330.864 698.963C326.203 703.471 319.654 714.907 319.654 714.907C318.068 716.736 316.166 718.612 313.91 719.597C311.001 720.847 306.815 719.215 304.512 717.343C303.761 716.73 303.069 716.063 302.444 715.348V715.348C301.679 714.476 300.991 713.553 300.386 712.587V712.569C300.188 712.256 300 711.943 299.819 711.615C293.263 699.851 291.606 685.979 291.326 672.514C291.045 659.048 292.035 645.47 290.197 632.118C288.81 632.724 287.406 633.346 286.018 633.993C285.096 642.682 286.217 652.092 286.593 660.69C286.863 666.858 287.21 673.023 287.554 679.188C288.172 690.149 288.864 701.423 293.557 711.337C295.155 714.659 297.128 717.83 299.446 720.804C299.51 721.351 301.653 722.507 302.054 722.779C304.106 724.2 306.375 725.357 308.794 726.218C311.632 727.194 314.687 727.631 317.663 727.025C328.48 724.802 324.078 710.386 329.782 703.89C329.782 703.902 331.563 701.21 331.052 698.778Z" fill="#F38E8B"/>
<path id="Vector_114" d="M318.412 776.56C313.8 777.851 309.993 780.655 306.35 783.438C302.958 786.033 299.148 788.831 294.66 788.753C292.532 788.709 290.535 788.012 288.576 787.318C281.325 784.748 274.12 782.081 266.96 779.317C265.442 778.733 263.817 778.067 263.058 776.76C262.565 775.932 262.497 774.962 262.448 774.028C261.816 762.272 262.16 750.492 263.477 738.781C263.941 734.636 264.541 730.431 263.725 726.326C262.661 720.983 260.532 718.988 258.02 719.007C258.077 721.195 258.375 723.362 258.478 725.544C258.655 729.114 258.336 732.688 258.02 736.252C257.666 740.244 257.311 744.255 256.229 748.148C255.519 750.73 254.487 753.253 254.129 755.892C253.738 758.777 254.161 761.679 254.753 764.548C251.514 772.805 247.601 780.965 244.004 789.203L233.151 807.792L280.502 828.779L290.62 810.431C292.377 807.775 294.324 805.219 296.448 802.781C303.232 795.118 312.239 789.228 319.671 782.05C321.646 780.143 323.507 778.148 325.248 776.072C322.957 775.777 320.619 775.944 318.412 776.56V776.56Z" fill="#F38E8B"/>
<path id="Vector_115" d="M271.622 885.751L294.987 832.035C295.131 831.703 295.13 831.336 294.982 831.005C294.834 830.675 294.551 830.405 294.189 830.25L226.457 801.205C226.082 801.045 225.652 801.018 225.255 801.13C224.859 801.243 224.527 801.486 224.328 801.808L172.93 885.751H271.622Z" fill="#231F20"/>
<path id="Vector_116" d="M248.332 779.824L286.185 795.933C286.185 795.933 287.774 796.327 287.54 797.518L279.086 820.771C279.086 820.771 278.944 823.625 281.57 820.293L292.443 801.432C292.443 801.432 293.284 799.803 294.529 800.116L300.794 802.783C301.183 802.987 301.475 803.309 301.616 803.688C301.758 804.067 301.739 804.478 301.564 804.846L290.744 828.771L229.543 802.511L242.067 780.449C242.067 780.449 243.198 778.008 248.332 779.824Z" fill="#F1F2F2"/>
<path id="Vector_117" d="M279.824 818.743L279.086 820.771C279.086 820.771 278.944 823.625 281.569 820.293L281.924 819.668L292.709 824.416L290.74 828.768L229.539 802.51L232.232 797.768L279.824 818.743Z" fill="#D1D3D4"/>
<path id="Vector_118" d="M271.622 885.751L294.987 832.029C295.131 831.698 295.13 831.33 294.982 831C294.834 830.669 294.551 830.4 294.189 830.244L274.002 821.587L242.73 885.751H271.622Z" fill="#231F20"/>
<path id="Vector_119" d="M662.317 885.751H691.209L659.94 821.587L639.751 830.244C639.389 830.4 639.106 830.67 638.959 831C638.811 831.331 638.809 831.698 638.952 832.029L662.317 885.751Z" fill="#231F20"/>
<path id="Vector_120" d="M242.89 555.848L186.745 636.233L130.436 716.529L102.332 756.713C92.9684 770.111 83.508 783.451 73.9507 796.732L59.565 816.638C54.7402 823.254 49.9437 829.888 45.0835 836.488C35.3984 849.707 25.6152 862.869 15.7338 875.975C15.7074 876.012 15.6653 876.039 15.6168 876.049C15.5682 876.059 15.5171 876.051 15.4748 876.028C15.4325 876.005 15.4023 875.968 15.391 875.925C15.3797 875.882 15.3881 875.837 15.4145 875.8C24.4208 862.21 33.5643 848.695 42.8449 835.253C47.4568 828.515 52.1184 821.809 56.7588 815.087L70.7649 794.978C80.1377 781.588 89.6076 768.249 99.1744 754.959L127.875 715.128L185.152 635.348L242.574 555.664C242.587 555.645 242.604 555.629 242.624 555.617C242.644 555.604 242.667 555.595 242.691 555.59C242.715 555.585 242.74 555.584 242.764 555.588C242.789 555.591 242.812 555.599 242.833 555.611C242.855 555.623 242.873 555.639 242.888 555.657C242.903 555.676 242.913 555.697 242.918 555.719C242.924 555.741 242.924 555.764 242.919 555.786C242.914 555.808 242.904 555.83 242.89 555.848V555.848Z" fill="#E6E7E8"/>
<path id="Vector_121" d="M684.543 555.673L741.97 635.348L799.23 715.119L827.922 754.969C837.486 768.254 846.954 781.594 856.327 794.988L870.336 815.097C874.972 821.819 879.644 828.541 884.246 835.263C893.49 848.725 902.635 862.241 911.678 875.81C911.703 875.848 911.71 875.893 911.697 875.936C911.685 875.979 911.654 876.015 911.611 876.038C911.569 876.058 911.52 876.064 911.473 876.054C911.427 876.045 911.386 876.02 911.359 875.985C901.44 862.897 891.656 849.735 882.007 836.498C877.151 829.898 872.354 823.263 867.526 816.648L853.145 796.742C843.592 783.452 834.132 770.113 824.765 756.723L796.676 716.539L740.37 636.242L684.224 555.858C684.211 555.839 684.202 555.818 684.199 555.797C684.195 555.775 684.196 555.753 684.202 555.732C684.208 555.711 684.219 555.691 684.233 555.673C684.248 555.655 684.266 555.641 684.288 555.629C684.328 555.605 684.378 555.597 684.426 555.605C684.474 555.613 684.516 555.638 684.543 555.673V555.673Z" fill="#E6E7E8"/>
<path id="Vector_122" d="M208.168 555.88L184.381 576.139L160.573 596.38L112.847 636.758L89.0386 656.995C81.099 663.74 73.0837 670.41 64.9928 677.004L52.8137 686.868C48.7304 690.132 44.6542 693.418 40.5567 696.657C32.3581 703.16 24.1134 709.616 15.7232 715.938C15.7055 715.953 15.6847 715.964 15.6619 715.972C15.6391 715.98 15.6149 715.983 15.5905 715.983C15.5412 715.982 15.4946 715.963 15.4607 715.932C15.4268 715.9 15.4085 715.858 15.4099 715.815C15.4112 715.771 15.432 715.73 15.4678 715.7C23.1165 708.685 30.9035 701.8 38.7438 694.966C42.6462 691.527 46.6089 688.15 50.5397 684.745L62.4172 674.6C70.3592 667.86 78.3827 661.19 86.4879 654.591L110.786 634.81L159.285 595.154L183.587 575.376L207.909 555.617C207.927 555.602 207.947 555.589 207.97 555.581C207.993 555.573 208.018 555.568 208.042 555.568C208.067 555.568 208.091 555.573 208.114 555.581C208.137 555.589 208.158 555.602 208.175 555.617C208.198 555.633 208.217 555.653 208.23 555.676C208.242 555.699 208.248 555.724 208.248 555.75C208.247 555.775 208.239 555.801 208.226 555.823C208.212 555.846 208.192 555.865 208.168 555.88V555.88Z" fill="#F1F2F2"/>
<path id="Vector_123" d="M719.204 555.639L743.529 575.398L767.829 595.176L816.327 634.832L840.623 654.613C848.726 661.203 856.749 667.873 864.693 674.622L876.566 684.767C880.5 688.172 884.459 691.555 888.365 694.988C896.202 701.822 903.974 708.707 911.64 715.722C911.658 715.737 911.672 715.755 911.682 715.775C911.692 715.795 911.697 715.816 911.697 715.838C911.697 715.86 911.692 715.881 911.682 715.901C911.672 715.921 911.658 715.939 911.64 715.954C911.606 715.982 911.561 715.997 911.514 715.997C911.468 715.997 911.423 715.982 911.388 715.954C902.999 709.632 894.754 703.176 886.556 696.673C882.445 693.434 878.397 690.148 874.296 686.884L862.117 677.02C854.024 670.419 846.011 663.749 838.076 657.011L814.269 636.773L766.545 596.395L742.738 576.155L718.952 555.895C718.921 555.864 718.905 555.825 718.906 555.784C718.907 555.743 718.925 555.704 718.956 555.674C718.988 555.644 719.031 555.625 719.078 555.622C719.124 555.618 719.17 555.63 719.207 555.655L719.204 555.639Z" fill="#F1F2F2"/>
</g>
</g>
</g>
</g>
</g>
<g id="cloud1 ">
<g id="Group_4">
<g id="layer1">
<g id="g6444">
<path id="path5530" d="M710.084 5.49268C693.575 5.49268 679.631 15.7858 675.292 29.8423C673.486 28.8437 671.408 28.2692 669.186 28.2692C662.316 28.2692 656.741 33.7198 656.741 40.4373C656.741 40.5057 656.74 40.5708 656.741 40.639C654.683 40.2267 652.525 39.9936 650.292 39.9936C636.673 39.9936 625.621 48.1762 625.621 58.2524C625.621 68.3287 636.673 76.5113 650.292 76.5113C655.685 76.5113 660.669 75.218 664.731 73.0424C667.156 80.1382 674.002 85.2643 682.071 85.2643C687.54 85.2643 692.443 82.9102 695.796 79.187C699.048 80.8503 702.872 81.8088 706.962 81.8088C712.526 81.8088 717.604 80.0391 721.415 77.1298C726.55 82.3408 734.101 85.6408 742.524 85.6408C752.856 85.6408 761.887 80.6699 766.74 73.2979C767.471 73.4026 768.22 73.4592 768.982 73.4592C777.202 73.4592 783.861 67.1386 783.861 59.3415C783.861 51.5444 777.202 45.2104 768.982 45.2104C767.511 45.2104 766.089 45.4246 764.746 45.802C760.317 40.697 753.694 37.1579 746.126 36.2961C744.578 19.0507 729.031 5.49267 710.084 5.49268V5.49268Z" fill="url(#paint0_linear_14_149)"/>
<path id="path6438" d="M709.297 4.72616C694.207 4.77029 679.455 14.6252 674.766 28.6993C667.941 25.3155 658.774 29.23 656.559 36.3498C656.196 37.4294 655.958 38.5613 655.899 39.6977C645.191 37.8539 632.528 41.2801 626.787 50.8305C622.947 57.0614 624.813 65.5133 630.28 70.2187C639.144 78.4619 653.659 79.3326 664.287 74.4406C667.736 83.4444 678.923 88.5382 688.229 85.2238C691.193 84.2863 693.893 82.4289 696.04 80.3566C704.021 84.1209 714.126 83.452 721.329 78.3532C732.884 89.6995 753.961 89.2377 764.826 77.2103C766.123 76.3439 766.494 73.8097 768.388 74.3868C777.164 74.9823 785.429 67.3011 784.725 58.6288C784.437 49.6967 774.994 42.8531 766.132 44.6859C764.305 45.4264 763.604 42.7844 762.103 42.1178C757.854 38.4676 752.213 36.4787 746.921 35.4758C745.308 19.9003 731.529 7.15786 715.861 5.13494C713.695 4.81431 711.492 4.67657 709.297 4.72616V4.72616Z" fill="url(#paint1_linear_14_149)"/>
</g>
</g>
</g>
</g>
<g id="cloud2">
<g id="Group_5">
<g id="layer1_2">
<g id="g6444_2">
<path id="path5530_2" d="M183.084 23.4927C166.575 23.4927 152.631 33.7858 148.292 47.8423C146.486 46.8437 144.408 46.2692 142.186 46.2692C135.316 46.2692 129.741 51.7198 129.741 58.4373C129.741 58.5057 129.74 58.5708 129.741 58.639C127.683 58.2267 125.525 57.9936 123.292 57.9936C109.673 57.9936 98.6212 66.1762 98.6212 76.2524C98.6212 86.3287 109.673 94.5113 123.292 94.5113C128.685 94.5113 133.669 93.218 137.731 91.0424C140.156 98.1382 147.002 103.264 155.072 103.264C160.54 103.264 165.443 100.91 168.796 97.187C172.048 98.8503 175.872 99.8088 179.962 99.8088C185.526 99.8088 190.604 98.0391 194.415 95.1298C199.55 100.341 207.101 103.641 215.524 103.641C225.856 103.641 234.887 98.6699 239.74 91.2979C240.471 91.4026 241.22 91.4592 241.982 91.4592C250.202 91.4592 256.861 85.1386 256.861 77.3415C256.861 69.5444 250.202 63.2104 241.982 63.2104C240.511 63.2104 239.089 63.4246 237.746 63.802C233.317 58.697 226.694 55.1579 219.127 54.2961C217.578 37.0507 202.031 23.4927 183.084 23.4927V23.4927Z" fill="url(#paint2_linear_14_149)"/>
<path id="path6438_2" d="M182.297 22.7262C167.207 22.7703 152.455 32.6252 147.766 46.6993C140.941 43.3155 131.774 47.23 129.559 54.3498C129.196 55.4294 128.958 56.5613 128.899 57.6977C118.191 55.8539 105.528 59.2801 99.7866 68.8305C95.9468 75.0614 97.813 83.5133 103.28 88.2187C112.144 96.4619 126.659 97.3326 137.287 92.4406C140.736 101.444 151.923 106.538 161.229 103.224C164.193 102.286 166.893 100.429 169.04 98.3566C177.021 102.121 187.126 101.452 194.329 96.3532C205.884 107.7 226.961 107.238 237.826 95.2103C239.123 94.3439 239.494 91.8097 241.388 92.3868C250.164 92.9823 258.429 85.3011 257.725 76.6288C257.437 67.6967 247.994 60.8531 239.132 62.6859C237.305 63.4264 236.604 60.7844 235.103 60.1178C230.854 56.4676 225.213 54.4787 219.921 53.4758C218.308 37.9003 204.529 25.1579 188.861 23.1349C186.695 22.8143 184.492 22.6766 182.297 22.7262V22.7262Z" fill="url(#paint3_linear_14_149)"/>
</g>
</g>
</g>
</g>
</g>
<defs>
<linearGradient id="paint0_linear_14_149" x1="625.621" y1="5.49268" x2="783.861" y2="5.49268" gradientUnits="userSpaceOnUse">
<stop offset="1" stop-color="#854506"/>
</linearGradient>
<linearGradient id="paint1_linear_14_149" x1="624.76" y1="4.71631" x2="784.767" y2="4.71631" gradientUnits="userSpaceOnUse">
<stop offset="1" stop-color="#EBF3FF"/>
</linearGradient>
<linearGradient id="paint2_linear_14_149" x1="98.6212" y1="23.4927" x2="256.861" y2="23.4927" gradientUnits="userSpaceOnUse">
<stop offset="1" stop-color="#854506"/>
</linearGradient>
<linearGradient id="paint3_linear_14_149" x1="97.7599" y1="22.7163" x2="257.767" y2="22.7163" gradientUnits="userSpaceOnUse">
<stop offset="1" stop-color="#EBF3FF"/>
</linearGradient>
</defs>


<style>

#cloud1{
animation: animate 1.5s infinite linear alternate-reverse   ; 

transform: translateY(-5px);
}


@keyframes animate {
from{
 transform: translateY(-5px);

}
to{
transform: translateY(22px);

}
}


</style>
</svg>
