<svg width="1091" height="432" viewBox="0 0 1091 432" fill="none" xmlns="http://www.w3.org/2000/svg">
<g id="underclouds">
<path id="Vector" d="M1001.36 62.2615C991.882 45.1841 973.316 33.5619 951.955 33.5619C935.186 33.5619 920.113 40.7961 909.832 52.1811C903.943 27.9881 881.783 10.0804 855.132 10.0804C827.283 10.0804 804.126 29.8855 799.734 55.8575C791.549 51.3509 782.166 48.8604 772.184 48.8604C767.593 48.8604 763.101 49.4534 758.909 50.4022C755.814 23.0071 732.058 1.6603 703.111 1.6603C675.961 1.6603 653.202 20.5166 648.012 45.5398C647.313 45.5398 646.714 45.5398 646.016 45.5398C631.043 45.5398 617.468 51.2323 607.387 60.6012C597.205 46.4886 580.336 37.1197 561.271 37.1197C544.701 37.1197 529.729 44.1167 519.448 55.2645C509.167 42.2192 492.996 33.6805 474.83 33.6805C470.837 33.6805 466.944 34.0363 463.251 34.8664C455.066 14.4684 434.703 0 410.947 0C381.401 0 357.245 22.1769 354.949 50.2836C345.866 44.1167 334.786 40.4403 322.808 40.4403C302.645 40.4403 284.878 50.8766 274.996 66.4123C272.301 38.5429 248.345 16.8403 219.098 16.8403C193.944 16.8403 172.683 32.969 165.497 55.1459C155.215 43.0494 139.644 35.3408 122.276 35.3408C102.812 35.3408 85.643 44.9469 75.5615 59.6525C65.48 45.0655 48.3114 35.3408 28.8471 35.3408C18.2665 35.3408 8.38463 38.187 0 43.168V364.2H1090.5V39.966C1080.72 31.783 1067.94 26.9207 1054.07 26.9207C1029.91 26.8021 1009.35 41.6263 1001.36 62.2615Z" fill="white"/>
<path id="Vector_2" d="M1007.02 375.875C997.528 391.269 978.954 401.746 957.583 401.746C940.806 401.746 925.727 395.225 915.441 384.962C909.549 406.771 887.38 422.913 860.717 422.913C832.855 422.913 809.687 405.06 805.293 381.648C797.104 385.71 787.717 387.955 777.731 387.955C773.137 387.955 768.643 387.421 764.449 386.566C761.353 411.261 737.586 430.503 708.626 430.503C681.463 430.503 658.694 413.506 653.501 390.949C652.802 390.949 652.203 390.949 651.504 390.949C636.525 390.949 622.943 385.817 612.857 377.372C602.671 390.094 585.795 398.539 566.721 398.539C550.144 398.539 535.164 392.232 524.878 382.183C514.592 393.942 498.415 401.639 480.24 401.639C476.245 401.639 472.351 401.318 468.656 400.57C460.467 418.958 440.095 432 416.328 432C386.768 432 362.601 412.009 360.305 386.673C351.217 392.232 340.132 395.546 328.149 395.546C307.977 395.546 290.201 386.138 280.315 372.134C277.618 397.256 253.651 416.82 224.392 416.82C199.226 416.82 177.955 402.281 170.765 382.29C160.479 393.194 144.901 400.143 127.525 400.143C108.051 400.143 90.8751 391.483 80.7889 378.227C70.7028 391.376 53.5264 400.143 34.0532 400.143C21.2708 400.143 9.38709 396.401 0 389.987V96H1091V399.501C1082.11 404.739 1071.33 407.84 1059.74 407.84C1035.58 407.84 1015 394.477 1007.02 375.875Z" fill="white"/>
</g>
</svg>
